<?xml version="1.0" encoding="utf-8"?>
<svg width="2000cm" height="1000cm" viewBox="0 0 2000 1000" xmlns="http://www.w3.org/2000/svg" xmlns:xlink="http://www.w3.org/1999/xlink">
  <path id="ornament" style="fill: #cc0000" d="M 117.636 399.96 L 113.715 399.96 L 113.715 407.802 L 105.872 407.802 L 105.872 411.723 L 101.951 411.723 L 101.951 403.881 L 98.03 403.881 L 98.03 407.802 L 94.109 407.802 L 94.109 411.723 L 90.188 411.723 L 90.188 415.645 L 82.345 415.645 L 82.345 403.881 L 86.267 403.881 L 86.267 399.96 L 90.188 399.96 L 90.188 396.039 L 70.581 396.039 L 70.581 399.96 L 74.503 399.96 L 74.503 403.881 L 78.424 403.881 L 78.424 415.645 L 70.581 415.645 L 70.581 411.724 L 66.66 411.724 L 66.66 407.803 L 62.739 407.803 L 62.739 403.881 L 58.818 403.881 L 58.818 411.724 L 54.897 411.724 L 54.897 407.803 L 47.054 407.803 L 47.054 399.96 L 43.133 399.96 L 43.133 380.354 L 39.212 380.354 L 39.212 399.96 L 35.291 399.96 L 35.291 407.803 L 27.448 407.803 L 27.448 411.724 L 23.527 411.724 L 23.527 403.881 L 19.606 403.881 L 19.606 407.803 L 15.685 407.803 L 15.685 411.724 L 11.764 411.724 L 11.764 415.645 L 3.921 415.645 L 3.921 403.881 L 7.843 403.881 L 7.843 399.96 L 11.764 399.96 L 11.764 396.039 L 0 396.039 L 0 392.118 L 3.921 392.118 L 3.921 388.197 L 7.843 388.197 L 7.843 384.276 L 11.764 384.276 L 11.764 380.354 L 19.606 380.354 L 19.606 376.433 L 35.291 376.433 L 35.291 380.354 L 31.37 380.354 L 31.37 384.276 L 27.448 384.276 L 27.448 388.197 L 23.527 388.197 L 23.527 392.118 L 19.606 392.118 L 19.606 396.039 L 23.527 396.039 L 23.527 392.118 L 27.448 392.118 L 27.448 388.197 L 31.37 388.197 L 31.37 384.276 L 35.291 384.276 L 35.291 380.354 L 39.212 380.354 L 39.212 376.433 L 35.291 376.433 L 35.291 372.512 L 39.212 372.512 L 39.212 368.591 L 35.291 368.591 L 35.291 364.67 L 31.37 364.67 L 31.37 360.748 L 27.448 360.748 L 27.448 356.827 L 23.527 356.827 L 23.527 352.906 L 19.606 352.906 L 19.606 356.827 L 23.527 356.827 L 23.527 360.748 L 27.448 360.748 L 27.448 364.67 L 31.37 364.67 L 31.37 368.591 L 35.291 368.591 L 35.291 372.512 L 19.606 372.512 L 19.606 368.591 L 11.764 368.591 L 11.764 364.67 L 7.843 364.67 L 7.843 360.748 L 3.921 360.748 L 3.921 356.827 L 0 356.827 L 0 352.906 L 11.764 352.906 L 11.764 348.985 L 7.843 348.985 L 7.843 345.064 L 3.921 345.064 L 3.921 333.3 L 11.764 333.3 L 11.764 337.221 L 15.685 337.221 L 15.685 341.143 L 19.606 341.143 L 19.606 345.064 L 23.527 345.064 L 23.527 337.221 L 27.448 337.221 L 27.448 341.143 L 35.291 341.143 L 35.291 348.985 L 39.212 348.985 L 39.212 368.591 L 43.133 368.591 L 43.133 348.985 L 47.054 348.985 L 47.054 341.143 L 54.897 341.143 L 54.897 337.221 L 58.818 337.221 L 58.818 345.064 L 62.739 345.064 L 62.739 341.143 L 66.66 341.143 L 66.66 337.221 L 70.581 337.221 L 70.581 333.3 L 78.424 333.3 L 78.424 345.064 L 74.503 345.064 L 74.503 348.985 L 70.581 348.985 L 70.581 352.906 L 90.188 352.906 L 90.188 348.984 L 86.267 348.984 L 86.267 345.063 L 82.345 345.063 L 82.345 333.3 L 90.188 333.3 L 90.188 337.221 L 94.109 337.221 L 94.109 341.142 L 98.03 341.142 L 98.03 345.063 L 101.951 345.063 L 101.951 337.221 L 105.872 337.221 L 105.872 341.142 L 113.715 341.142 L 113.715 348.984 L 117.636 348.984 L 117.636 368.59 L 121.557 368.59 L 121.557 348.984 L 125.478 348.984 L 125.478 341.142 L 133.321 341.142 L 133.321 337.221 L 137.242 337.221 L 137.242 345.063 L 141.163 345.063 L 141.163 341.142 L 145.084 341.142 L 145.084 337.221 L 149.005 337.221 L 149.005 333.3 L 156.848 333.3 L 156.848 345.063 L 152.927 345.063 L 152.927 348.984 L 149.005 348.984 L 149.005 352.906 L 160.769 352.906 L 160.769 356.827 L 156.848 356.827 L 156.848 360.748 L 152.927 360.748 L 152.927 364.669 L 149.005 364.669 L 149.005 368.59 L 141.163 368.59 L 141.163 372.512 L 125.478 372.512 L 125.478 368.59 L 129.4 368.59 L 129.4 364.669 L 133.321 364.669 L 133.321 360.748 L 137.242 360.748 L 137.242 356.827 L 141.163 356.827 L 141.163 352.906 L 137.242 352.906 L 137.242 356.827 L 133.321 356.827 L 133.321 360.748 L 129.4 360.748 L 129.4 364.669 L 125.478 364.669 L 125.478 368.59 L 121.557 368.59 L 121.557 372.512 L 125.478 372.512 L 125.478 376.433 L 121.557 376.433 L 121.557 380.354 L 125.478 380.354 L 125.478 384.275 L 129.4 384.275 L 129.4 388.196 L 133.321 388.196 L 133.321 392.117 L 137.242 392.117 L 137.242 396.039 L 141.163 396.039 L 141.163 392.117 L 137.242 392.117 L 137.242 388.196 L 133.321 388.196 L 133.321 384.275 L 129.4 384.275 L 129.4 380.354 L 125.478 380.354 L 125.478 376.433 L 141.163 376.433 L 141.163 380.354 L 149.005 380.354 L 149.005 384.275 L 152.927 384.275 L 152.927 388.196 L 156.848 388.196 L 156.848 392.117 L 160.769 392.117 L 160.769 396.039 L 149.005 396.039 L 149.005 399.96 L 152.927 399.96 L 152.927 403.881 L 156.848 403.881 L 156.848 415.645 L 149.005 415.645 L 149.005 411.723 L 145.084 411.723 L 145.084 407.802 L 141.163 407.802 L 141.163 403.881 L 137.242 403.881 L 137.242 411.723 L 133.321 411.723 L 133.321 407.802 L 125.478 407.802 L 125.478 399.96 L 121.557 399.96 L 121.557 380.354 L 117.636 380.354 L 117.636 399.96 Z M 82.345 392.117 L 82.345 388.196 L 86.267 388.196 L 86.267 384.275 L 90.188 384.275 L 90.188 380.354 L 98.03 380.354 L 98.03 376.433 L 113.715 376.433 L 113.715 380.354 L 109.794 380.354 L 109.794 384.275 L 105.872 384.275 L 105.872 388.196 L 101.951 388.196 L 101.951 392.117 L 98.03 392.117 L 98.03 396.039 L 101.951 396.039 L 101.951 392.117 L 105.872 392.117 L 105.872 388.196 L 109.794 388.196 L 109.794 384.275 L 113.715 384.275 L 113.715 380.354 L 117.636 380.354 L 117.636 376.433 L 113.715 376.433 L 113.715 372.512 L 117.636 372.512 L 117.636 368.59 L 113.715 368.59 L 113.715 364.669 L 109.794 364.669 L 109.794 360.748 L 105.872 360.748 L 105.872 356.827 L 101.951 356.827 L 101.951 352.906 L 98.03 352.906 L 98.03 356.827 L 101.951 356.827 L 101.951 360.748 L 105.872 360.748 L 105.872 364.669 L 109.794 364.669 L 109.794 368.59 L 113.715 368.59 L 113.715 372.512 L 98.03 372.512 L 98.03 368.59 L 90.188 368.59 L 90.188 364.669 L 86.267 364.669 L 86.267 360.748 L 82.345 360.748 L 82.345 356.827 L 78.424 356.827 L 78.424 360.748 L 74.503 360.748 L 74.503 364.67 L 70.581 364.67 L 70.581 368.591 L 62.739 368.591 L 62.739 372.512 L 47.054 372.512 L 47.054 368.591 L 50.976 368.591 L 50.976 364.67 L 54.897 364.67 L 54.897 360.748 L 58.818 360.748 L 58.818 356.827 L 62.739 356.827 L 62.739 352.906 L 58.818 352.906 L 58.818 356.827 L 54.897 356.827 L 54.897 360.748 L 50.976 360.748 L 50.976 364.67 L 47.054 364.67 L 47.054 368.591 L 43.133 368.591 L 43.133 372.512 L 47.054 372.512 L 47.054 376.433 L 43.133 376.433 L 43.133 380.354 L 47.054 380.354 L 47.054 384.276 L 50.976 384.276 L 50.976 388.197 L 54.897 388.197 L 54.897 392.118 L 58.818 392.118 L 58.818 396.039 L 62.739 396.039 L 62.739 392.118 L 58.818 392.118 L 58.818 388.197 L 54.897 388.197 L 54.897 384.276 L 50.976 384.276 L 50.976 380.354 L 47.054 380.354 L 47.054 376.433 L 62.739 376.433 L 62.739 380.354 L 70.581 380.354 L 70.581 384.276 L 74.503 384.276 L 74.503 388.197 L 78.424 388.197 L 78.424 392.117 L 82.345 392.117 Z M 121.557 403.881 L 121.557 407.802 L 117.636 407.802 L 117.636 403.881 L 121.557 403.881 Z M 117.636 345.063 L 117.636 341.142 L 121.557 341.142 L 121.557 345.063 L 117.636 345.063 Z M 43.133 403.881 L 43.133 407.803 L 39.212 407.803 L 39.212 403.881 L 43.133 403.881 Z M 39.212 345.064 L 39.212 341.143 L 43.133 341.143 L 43.133 345.064 L 39.212 345.064 Z M 117.635 650.915 L 113.714 650.915 L 113.714 658.757 L 105.872 658.757 L 105.872 662.678 L 101.951 662.678 L 101.951 654.836 L 98.03 654.836 L 98.03 658.757 L 94.108 658.757 L 94.108 662.678 L 90.187 662.678 L 90.187 666.6 L 82.345 666.6 L 82.345 654.836 L 86.266 654.836 L 86.266 650.915 L 90.187 650.915 L 90.187 646.994 L 70.581 646.994 L 70.581 650.915 L 74.502 650.915 L 74.502 654.836 L 78.423 654.836 L 78.423 666.6 L 70.581 666.6 L 70.581 662.679 L 66.66 662.679 L 66.66 658.758 L 62.739 658.758 L 62.739 654.836 L 58.817 654.836 L 58.817 662.679 L 54.896 662.679 L 54.896 658.758 L 47.054 658.758 L 47.054 650.915 L 43.133 650.915 L 43.133 631.309 L 39.211 631.309 L 39.211 650.915 L 35.29 650.915 L 35.29 658.758 L 27.448 658.758 L 27.448 662.679 L 23.527 662.679 L 23.527 654.836 L 19.606 654.836 L 19.606 658.758 L 15.684 658.758 L 15.684 662.679 L 11.763 662.679 L 11.763 666.6 L 3.921 666.6 L 3.921 654.836 L 7.842 654.836 L 7.842 650.915 L 11.763 650.915 L 11.763 646.994 L 0 646.994 L 0 643.073 L 3.921 643.073 L 3.921 639.152 L 7.842 639.152 L 7.842 635.231 L 11.763 635.231 L 11.763 631.309 L 19.606 631.309 L 19.606 627.388 L 35.29 627.388 L 35.29 631.309 L 31.369 631.309 L 31.369 635.231 L 27.448 635.231 L 27.448 639.152 L 23.527 639.152 L 23.527 643.073 L 19.606 643.073 L 19.606 646.994 L 23.527 646.994 L 23.527 643.073 L 27.448 643.073 L 27.448 639.152 L 31.369 639.152 L 31.369 635.231 L 35.29 635.231 L 35.29 631.309 L 39.211 631.309 L 39.211 627.388 L 35.29 627.388 L 35.29 623.467 L 39.211 623.467 L 39.211 619.546 L 35.29 619.546 L 35.29 615.625 L 31.369 615.625 L 31.369 611.703 L 27.448 611.703 L 27.448 607.782 L 23.527 607.782 L 23.527 603.861 L 19.606 603.861 L 19.606 607.782 L 23.527 607.782 L 23.527 611.703 L 27.448 611.703 L 27.448 615.625 L 31.369 615.625 L 31.369 619.546 L 35.29 619.546 L 35.29 623.467 L 19.606 623.467 L 19.606 619.546 L 11.763 619.546 L 11.763 615.625 L 7.842 615.625 L 7.842 611.703 L 3.921 611.703 L 3.921 607.782 L 0 607.782 L 0 603.861 L 11.763 603.861 L 11.763 599.94 L 7.842 599.94 L 7.842 596.019 L 3.921 596.019 L 3.921 584.255 L 11.763 584.255 L 11.763 588.176 L 15.684 588.176 L 15.684 592.098 L 19.606 592.098 L 19.606 596.019 L 23.527 596.019 L 23.527 588.176 L 27.448 588.176 L 27.448 592.098 L 35.29 592.098 L 35.29 599.94 L 39.211 599.94 L 39.211 619.546 L 43.133 619.546 L 43.133 599.94 L 47.054 599.94 L 47.054 592.098 L 54.896 592.098 L 54.896 588.176 L 58.817 588.176 L 58.817 596.019 L 62.739 596.019 L 62.739 592.098 L 66.66 592.098 L 66.66 588.176 L 70.581 588.176 L 70.581 584.255 L 78.423 584.255 L 78.423 596.019 L 74.502 596.019 L 74.502 599.94 L 70.581 599.94 L 70.581 603.861 L 90.187 603.861 L 90.187 599.939 L 86.266 599.939 L 86.266 596.018 L 82.345 596.018 L 82.345 584.255 L 90.187 584.255 L 90.187 588.176 L 94.108 588.176 L 94.108 592.097 L 98.03 592.097 L 98.03 596.018 L 101.951 596.018 L 101.951 588.176 L 105.872 588.176 L 105.872 592.097 L 113.714 592.097 L 113.714 599.939 L 117.635 599.939 L 117.635 619.545 L 121.557 619.545 L 121.557 599.939 L 125.478 599.939 L 125.478 592.097 L 133.32 592.097 L 133.32 588.176 L 137.241 588.176 L 137.241 596.018 L 141.163 596.018 L 141.163 592.097 L 145.084 592.097 L 145.084 588.176 L 149.005 588.176 L 149.005 584.255 L 156.847 584.255 L 156.847 596.018 L 152.926 596.018 L 152.926 599.939 L 149.005 599.939 L 149.005 603.861 L 160.768 603.861 L 160.768 607.782 L 156.847 607.782 L 156.847 611.703 L 152.926 611.703 L 152.926 615.624 L 149.005 615.624 L 149.005 619.545 L 141.163 619.545 L 141.163 623.467 L 125.478 623.467 L 125.478 619.545 L 129.399 619.545 L 129.399 615.624 L 133.32 615.624 L 133.32 611.703 L 137.241 611.703 L 137.241 607.782 L 141.163 607.782 L 141.163 603.861 L 137.241 603.861 L 137.241 607.782 L 133.32 607.782 L 133.32 611.703 L 129.399 611.703 L 129.399 615.624 L 125.478 615.624 L 125.478 619.545 L 121.557 619.545 L 121.557 623.467 L 125.478 623.467 L 125.478 627.388 L 121.557 627.388 L 121.557 631.309 L 125.478 631.309 L 125.478 635.23 L 129.399 635.23 L 129.399 639.151 L 133.32 639.151 L 133.32 643.072 L 137.241 643.072 L 137.241 646.994 L 141.163 646.994 L 141.163 643.072 L 137.241 643.072 L 137.241 639.151 L 133.32 639.151 L 133.32 635.23 L 129.399 635.23 L 129.399 631.309 L 125.478 631.309 L 125.478 627.388 L 141.163 627.388 L 141.163 631.309 L 149.005 631.309 L 149.005 635.23 L 152.926 635.23 L 152.926 639.151 L 156.847 639.151 L 156.847 643.072 L 160.768 643.072 L 160.768 646.994 L 149.005 646.994 L 149.005 650.915 L 152.926 650.915 L 152.926 654.836 L 156.847 654.836 L 156.847 666.6 L 149.005 666.6 L 149.005 662.678 L 145.084 662.678 L 145.084 658.757 L 141.163 658.757 L 141.163 654.836 L 137.241 654.836 L 137.241 662.678 L 133.32 662.678 L 133.32 658.757 L 125.478 658.757 L 125.478 650.915 L 121.557 650.915 L 121.557 631.309 L 117.635 631.309 L 117.635 650.915 Z M 78.424 643.072 L 82.345 643.072 L 82.345 639.151 L 86.266 639.151 L 86.266 635.23 L 90.187 635.23 L 90.187 631.309 L 98.03 631.309 L 98.03 627.388 L 113.714 627.388 L 113.714 631.309 L 109.793 631.309 L 109.793 635.23 L 105.872 635.23 L 105.872 639.151 L 101.951 639.151 L 101.951 643.072 L 98.03 643.072 L 98.03 646.994 L 101.951 646.994 L 101.951 643.072 L 105.872 643.072 L 105.872 639.151 L 109.793 639.151 L 109.793 635.23 L 113.714 635.23 L 113.714 631.309 L 117.635 631.309 L 117.635 627.388 L 113.714 627.388 L 113.714 623.467 L 117.635 623.467 L 117.635 619.545 L 113.714 619.545 L 113.714 615.624 L 109.793 615.624 L 109.793 611.703 L 105.872 611.703 L 105.872 607.782 L 101.951 607.782 L 101.951 603.861 L 98.03 603.861 L 98.03 607.782 L 101.951 607.782 L 101.951 611.703 L 105.872 611.703 L 105.872 615.624 L 109.793 615.624 L 109.793 619.545 L 113.714 619.545 L 113.714 623.467 L 98.03 623.467 L 98.03 619.545 L 90.187 619.545 L 90.187 615.624 L 86.266 615.624 L 86.266 611.703 L 82.345 611.703 L 82.345 607.782 L 78.423 607.782 L 78.423 611.703 L 74.502 611.703 L 74.502 615.625 L 70.581 615.625 L 70.581 619.546 L 62.739 619.546 L 62.739 623.467 L 47.054 623.467 L 47.054 619.546 L 50.975 619.546 L 50.975 615.625 L 54.896 615.625 L 54.896 611.703 L 58.817 611.703 L 58.817 607.782 L 62.739 607.782 L 62.739 603.861 L 58.817 603.861 L 58.817 607.782 L 54.896 607.782 L 54.896 611.703 L 50.975 611.703 L 50.975 615.625 L 47.054 615.625 L 47.054 619.546 L 43.133 619.546 L 43.133 623.467 L 47.054 623.467 L 47.054 627.388 L 43.133 627.388 L 43.133 631.309 L 47.054 631.309 L 47.054 635.231 L 50.975 635.231 L 50.975 639.152 L 54.896 639.152 L 54.896 643.073 L 58.817 643.073 L 58.817 646.994 L 62.739 646.994 L 62.739 643.073 L 58.817 643.073 L 58.817 639.152 L 54.896 639.152 L 54.896 635.231 L 50.975 635.231 L 50.975 631.309 L 47.054 631.309 L 47.054 627.388 L 62.739 627.388 L 62.739 631.309 L 70.581 631.309 L 70.581 635.231 L 74.502 635.231 L 74.502 639.152 L 78.423 639.152 L 78.423 643.073 L 78.424 643.073 L 78.424 643.072 Z M 121.557 654.836 L 121.557 658.757 L 117.635 658.757 L 117.635 654.836 L 121.557 654.836 Z M 117.635 596.018 L 117.635 592.097 L 121.557 592.097 L 121.557 596.018 L 117.635 596.018 Z M 43.133 654.836 L 43.133 658.758 L 39.211 658.758 L 39.211 654.836 L 43.133 654.836 Z M 39.211 596.019 L 39.211 592.098 L 43.133 592.098 L 43.133 596.019 L 39.211 596.019 Z M 86.266 517.595 L 90.187 517.595 L 90.187 521.517 L 94.108 521.517 L 94.108 529.359 L 90.187 529.359 L 90.187 533.28 L 86.266 533.28 L 86.266 529.359 L 82.344 529.359 L 82.344 521.517 L 78.423 521.517 L 78.423 529.359 L 74.502 529.359 L 74.502 533.28 L 70.581 533.28 L 70.581 529.359 L 66.66 529.359 L 66.66 521.517 L 70.581 521.517 L 70.581 517.595 L 74.502 517.595 L 74.502 509.753 L 86.266 509.753 L 86.266 517.595 Z M 82.344 537.201 L 86.266 537.201 L 86.266 541.123 L 90.187 541.123 L 90.187 545.044 L 94.108 545.044 L 94.108 548.965 L 86.266 548.965 L 86.266 545.044 L 82.344 545.044 L 82.344 552.886 L 90.187 552.886 L 90.187 560.728 L 94.108 560.728 L 94.108 552.886 L 98.029 552.886 L 98.029 556.807 L 101.95 556.807 L 101.95 564.65 L 98.029 564.65 L 98.029 568.571 L 90.187 568.571 L 90.187 564.65 L 86.266 564.65 L 86.266 556.807 L 82.344 556.807 L 82.344 568.571 L 86.266 568.571 L 86.266 572.492 L 82.344 572.492 L 82.344 576.413 L 78.423 576.413 L 78.423 572.492 L 74.502 572.492 L 74.502 568.571 L 78.423 568.571 L 78.423 556.807 L 74.502 556.807 L 74.502 564.65 L 70.581 564.65 L 70.581 568.571 L 62.739 568.571 L 62.739 564.65 L 58.817 564.65 L 58.817 556.807 L 62.739 556.807 L 62.739 552.886 L 66.66 552.886 L 66.66 560.728 L 70.581 560.728 L 70.581 552.886 L 78.423 552.886 L 78.423 545.044 L 74.502 545.044 L 74.502 548.965 L 66.66 548.965 L 66.66 545.044 L 70.581 545.044 L 70.581 541.123 L 74.502 541.123 L 74.502 537.201 L 78.423 537.201 L 78.423 529.359 L 82.344 529.359 L 82.344 537.201 Z M 86.266 490.147 L 74.502 490.147 L 74.502 482.305 L 70.581 482.305 L 70.581 478.384 L 66.66 478.384 L 66.66 470.541 L 70.581 470.541 L 70.581 466.62 L 74.502 466.62 L 74.502 470.541 L 78.423 470.541 L 78.423 478.384 L 82.344 478.384 L 82.344 470.541 L 86.266 470.541 L 86.266 466.62 L 90.187 466.62 L 90.187 470.541 L 94.108 470.541 L 94.108 478.384 L 90.187 478.384 L 90.187 482.305 L 86.266 482.305 L 86.266 490.147 Z M 82.344 470.541 L 78.423 470.541 L 78.423 462.699 L 74.502 462.699 L 74.502 458.778 L 70.581 458.778 L 70.581 454.857 L 66.66 454.857 L 66.66 450.935 L 74.502 450.935 L 74.502 454.857 L 78.423 454.857 L 78.423 447.014 L 70.581 447.014 L 70.581 439.172 L 66.66 439.172 L 66.66 447.014 L 62.739 447.014 L 62.739 443.093 L 58.817 443.093 L 58.817 435.251 L 62.739 435.251 L 62.739 431.33 L 70.581 431.33 L 70.581 435.251 L 74.502 435.251 L 74.502 443.093 L 78.423 443.093 L 78.423 431.33 L 74.502 431.33 L 74.502 427.408 L 78.423 427.408 L 78.423 423.487 L 82.344 423.487 L 82.344 427.408 L 86.266 427.408 L 86.266 431.33 L 82.344 431.33 L 82.344 443.093 L 86.266 443.093 L 86.266 435.251 L 90.187 435.251 L 90.187 431.33 L 98.029 431.33 L 98.029 435.251 L 101.95 435.251 L 101.95 443.093 L 98.029 443.093 L 98.029 447.014 L 94.108 447.014 L 94.108 439.172 L 90.187 439.172 L 90.187 447.014 L 82.344 447.014 L 82.344 454.857 L 86.266 454.857 L 86.266 450.935 L 94.108 450.935 L 94.108 454.857 L 90.187 454.857 L 90.187 458.778 L 86.266 458.778 L 86.266 462.699 L 82.344 462.699 L 82.344 470.541 Z M 62.739 505.832 L 62.739 509.753 L 58.817 509.753 L 58.817 513.674 L 50.975 513.674 L 50.975 509.753 L 47.054 509.753 L 47.054 505.832 L 50.975 505.832 L 50.975 501.911 L 58.817 501.911 L 58.817 497.99 L 50.975 497.99 L 50.975 494.068 L 47.054 494.068 L 47.054 490.147 L 50.975 490.147 L 50.975 486.226 L 58.817 486.226 L 58.817 490.147 L 62.739 490.147 L 62.739 494.068 L 70.581 494.068 L 70.581 505.832 L 62.739 505.832 Z M 43.133 501.911 L 43.133 505.832 L 39.211 505.832 L 39.211 509.753 L 35.29 509.753 L 35.29 513.674 L 31.369 513.674 L 31.369 505.832 L 35.29 505.832 L 35.29 501.911 L 27.448 501.911 L 27.448 509.753 L 19.606 509.753 L 19.606 513.674 L 27.448 513.674 L 27.448 517.595 L 23.527 517.595 L 23.527 521.517 L 15.684 521.517 L 15.684 517.595 L 11.763 517.595 L 11.763 509.753 L 15.684 509.753 L 15.684 505.832 L 23.527 505.832 L 23.527 501.911 L 11.763 501.911 L 11.763 505.832 L 7.842 505.832 L 7.842 501.911 L 3.921 501.911 L 3.921 497.99 L 7.842 497.99 L 7.842 494.068 L 11.763 494.068 L 11.763 497.99 L 23.527 497.99 L 23.527 494.068 L 15.684 494.068 L 15.684 490.147 L 11.763 490.147 L 11.763 482.305 L 15.684 482.305 L 15.684 478.384 L 23.527 478.384 L 23.527 482.305 L 27.448 482.305 L 27.448 486.226 L 19.606 486.226 L 19.606 490.147 L 27.448 490.147 L 27.448 497.99 L 35.29 497.99 L 35.29 494.068 L 31.369 494.068 L 31.369 486.226 L 35.29 486.226 L 35.29 490.147 L 39.211 490.147 L 39.211 494.068 L 43.133 494.068 L 43.133 497.99 L 50.975 497.99 L 50.975 501.911 L 43.133 501.911 Z M 90.187 505.832 L 90.187 494.068 L 98.029 494.068 L 98.029 490.147 L 101.95 490.147 L 101.95 486.226 L 109.793 486.226 L 109.793 490.147 L 113.714 490.147 L 113.714 494.068 L 109.793 494.068 L 109.793 497.99 L 101.95 497.99 L 101.95 501.911 L 109.793 501.911 L 109.793 505.832 L 113.714 505.832 L 113.714 509.753 L 109.793 509.753 L 109.793 513.674 L 101.95 513.674 L 101.95 509.753 L 98.029 509.753 L 98.029 505.832 L 90.187 505.832 Z M 109.793 501.911 L 109.793 497.99 L 117.635 497.99 L 117.635 494.068 L 121.556 494.068 L 121.556 490.147 L 125.477 490.147 L 125.477 486.226 L 129.399 486.226 L 129.399 494.068 L 125.477 494.068 L 125.477 497.99 L 133.32 497.99 L 133.32 490.147 L 141.162 490.147 L 141.162 486.226 L 133.32 486.226 L 133.32 482.305 L 137.241 482.305 L 137.241 478.384 L 145.083 478.384 L 145.083 482.305 L 149.004 482.305 L 149.004 490.147 L 145.083 490.147 L 145.083 494.068 L 137.241 494.068 L 137.241 497.99 L 149.004 497.99 L 149.004 494.068 L 152.926 494.068 L 152.926 497.99 L 156.847 497.99 L 156.847 501.911 L 152.926 501.911 L 152.926 505.832 L 149.004 505.832 L 149.004 501.911 L 137.241 501.911 L 137.241 505.832 L 145.083 505.832 L 145.083 509.753 L 149.004 509.753 L 149.004 517.595 L 145.083 517.595 L 145.083 521.517 L 137.241 521.517 L 137.241 517.595 L 133.32 517.595 L 133.32 513.674 L 141.162 513.674 L 141.162 509.753 L 133.32 509.753 L 133.32 501.911 L 125.477 501.911 L 125.477 505.832 L 129.399 505.832 L 129.399 513.674 L 125.477 513.674 L 125.477 509.753 L 121.556 509.753 L 121.556 505.832 L 117.635 505.832 L 117.635 501.911 L 109.793 501.911 Z M 86.266 509.753 L 86.266 505.832 L 90.187 505.832 L 90.187 509.753 L 86.266 509.753 Z M 70.581 509.753 L 70.581 505.832 L 74.502 505.832 L 74.502 509.753 L 70.581 509.753 Z M 86.266 494.068 L 86.266 505.832 L 74.502 505.832 L 74.502 494.068 L 86.266 494.068 Z M 82.344 497.99 L 78.423 497.99 L 78.423 501.911 L 82.344 501.911 L 82.344 497.99 Z M 90.187 490.147 L 90.187 494.068 L 86.266 494.068 L 86.266 490.147 L 90.187 490.147 Z M 74.502 490.147 L 74.502 494.068 L 70.581 494.068 L 70.581 490.147 L 74.502 490.147 Z M 50.975 470.541 L 54.896 470.541 L 54.896 474.463 L 50.975 474.463 L 50.975 470.541 Z M 50.975 447.014 L 50.975 450.935 L 54.896 450.935 L 54.896 466.62 L 50.975 466.62 L 50.975 470.541 L 47.054 470.541 L 47.054 474.463 L 31.369 474.463 L 31.369 470.541 L 27.448 470.541 L 27.448 466.62 L 23.527 466.62 L 23.527 458.778 L 19.606 458.778 L 19.606 454.857 L 15.684 454.857 L 15.684 450.935 L 11.763 450.935 L 11.763 462.699 L 7.842 462.699 L 7.842 458.778 L 3.921 458.778 L 3.921 454.857 L 0 454.857 L 0 450.935 L 7.842 450.935 L 7.842 447.014 L 11.763 447.014 L 11.763 439.172 L 15.684 439.172 L 15.684 443.093 L 19.606 443.093 L 19.606 447.014 L 23.527 447.014 L 23.527 450.935 L 27.448 450.935 L 27.448 454.857 L 31.369 454.857 L 31.369 458.778 L 35.29 458.778 L 35.29 462.699 L 39.211 462.699 L 39.211 466.62 L 43.133 466.62 L 43.133 462.699 L 47.054 462.699 L 47.054 458.778 L 43.133 458.778 L 43.133 454.857 L 39.211 454.857 L 39.211 450.935 L 35.29 450.935 L 35.29 447.014 L 31.369 447.014 L 31.369 443.093 L 27.448 443.093 L 27.448 439.172 L 23.527 439.172 L 23.527 435.251 L 19.606 435.251 L 19.606 431.33 L 27.448 431.33 L 27.448 427.408 L 31.369 427.408 L 31.369 419.566 L 35.29 419.566 L 35.29 423.487 L 39.211 423.487 L 39.211 427.408 L 43.133 427.408 L 43.133 431.33 L 31.369 431.33 L 31.369 435.251 L 35.29 435.251 L 35.29 439.172 L 39.211 439.172 L 39.211 443.093 L 47.054 443.093 L 47.054 447.014 L 50.975 447.014 Z M 35.29 454.857 L 39.211 454.857 L 39.211 458.778 L 35.29 458.778 L 35.29 454.857 Z M 31.369 450.935 L 35.29 450.935 L 35.29 454.857 L 31.369 454.857 L 31.369 450.935 Z M 27.448 447.014 L 31.369 447.014 L 31.369 450.935 L 27.448 450.935 L 27.448 447.014 Z M 23.527 443.093 L 27.448 443.093 L 27.448 447.014 L 23.527 447.014 L 23.527 443.093 Z M 19.606 439.172 L 23.527 439.172 L 23.527 443.093 L 19.606 443.093 L 19.606 439.172 Z M 15.684 435.251 L 19.606 435.251 L 19.606 439.172 L 15.684 439.172 L 15.684 435.251 Z M 39.211 419.566 L 43.133 419.566 L 43.133 423.487 L 39.211 423.487 L 39.211 419.566 Z M 0 458.778 L 3.921 458.778 L 3.921 462.699 L 0 462.699 L 0 458.778 Z M 3.921 439.172 L 7.842 439.172 L 7.842 443.093 L 3.921 443.093 L 3.921 439.172 Z M 0 431.33 L 7.842 431.33 L 7.842 427.408 L 11.763 427.408 L 11.763 419.566 L 19.606 419.566 L 19.606 423.487 L 15.684 423.487 L 15.684 435.251 L 3.921 435.251 L 3.921 439.172 L 0 439.172 L 0 431.33 Z M 3.921 419.566 L 7.842 419.566 L 7.842 427.408 L 0 427.408 L 0 423.487 L 3.921 423.487 L 3.921 419.566 Z M 19.606 423.487 L 23.527 423.487 L 23.527 427.408 L 19.606 427.408 L 19.606 423.487 Z M 54.896 474.463 L 58.817 474.463 L 58.817 478.384 L 54.896 478.384 L 54.896 474.463 Z M 58.817 478.384 L 62.739 478.384 L 62.739 482.305 L 58.817 482.305 L 58.817 478.384 Z M 62.739 482.305 L 66.66 482.305 L 66.66 486.226 L 62.739 486.226 L 62.739 482.305 Z M 66.66 486.226 L 70.581 486.226 L 70.581 490.147 L 66.66 490.147 L 66.66 486.226 Z M 109.793 529.359 L 105.872 529.359 L 105.872 525.438 L 109.793 525.438 L 109.793 529.359 Z M 109.793 552.886 L 109.793 548.965 L 105.872 548.965 L 105.872 533.28 L 109.793 533.28 L 109.793 529.359 L 113.714 529.359 L 113.714 525.438 L 129.399 525.438 L 129.399 529.359 L 133.32 529.359 L 133.32 533.28 L 137.241 533.28 L 137.241 541.123 L 141.162 541.123 L 141.162 545.044 L 145.083 545.044 L 145.083 548.965 L 149.004 548.965 L 149.004 537.201 L 152.926 537.201 L 152.926 541.123 L 156.847 541.123 L 156.847 545.044 L 160.768 545.044 L 160.768 548.965 L 152.926 548.965 L 152.926 552.886 L 149.004 552.886 L 149.004 560.728 L 145.083 560.728 L 145.083 556.807 L 141.162 556.807 L 141.162 552.886 L 137.241 552.886 L 137.241 548.965 L 133.32 548.965 L 133.32 545.044 L 129.399 545.044 L 129.399 541.123 L 125.477 541.123 L 125.477 537.201 L 121.556 537.201 L 121.556 533.28 L 117.635 533.28 L 117.635 537.201 L 113.714 537.201 L 113.714 541.123 L 117.635 541.123 L 117.635 545.044 L 121.556 545.044 L 121.556 548.965 L 125.477 548.965 L 125.477 552.886 L 129.399 552.886 L 129.399 556.807 L 133.32 556.807 L 133.32 560.728 L 137.241 560.728 L 137.241 564.65 L 141.162 564.65 L 141.162 568.571 L 133.32 568.571 L 133.32 572.492 L 129.399 572.492 L 129.399 580.334 L 125.477 580.334 L 125.477 576.413 L 121.556 576.413 L 121.556 572.492 L 117.635 572.492 L 117.635 568.571 L 129.399 568.571 L 129.399 564.65 L 125.477 564.65 L 125.477 560.728 L 121.556 560.728 L 121.556 556.807 L 113.714 556.807 L 113.714 552.886 L 109.793 552.886 Z M 125.477 545.044 L 121.556 545.044 L 121.556 541.123 L 125.477 541.123 L 125.477 545.044 Z M 129.399 548.965 L 125.477 548.965 L 125.477 545.044 L 129.399 545.044 L 129.399 548.965 Z M 133.32 552.886 L 129.399 552.886 L 129.399 548.965 L 133.32 548.965 L 133.32 552.886 Z M 137.241 556.807 L 133.32 556.807 L 133.32 552.886 L 137.241 552.886 L 137.241 556.807 Z M 141.162 560.728 L 137.241 560.728 L 137.241 556.807 L 141.162 556.807 L 141.162 560.728 Z M 145.083 564.65 L 141.162 564.65 L 141.162 560.728 L 145.083 560.728 L 145.083 564.65 Z M 121.556 580.334 L 117.635 580.334 L 117.635 576.413 L 121.556 576.413 L 121.556 580.334 Z M 160.768 541.123 L 156.847 541.123 L 156.847 537.201 L 160.768 537.201 L 160.768 541.123 Z M 156.847 560.728 L 152.926 560.728 L 152.926 556.807 L 156.847 556.807 L 156.847 560.728 Z M 160.768 568.571 L 152.926 568.571 L 152.926 572.492 L 149.004 572.492 L 149.004 580.334 L 141.162 580.334 L 141.162 576.413 L 145.083 576.413 L 145.083 564.65 L 156.847 564.65 L 156.847 560.728 L 160.768 560.728 L 160.768 568.571 Z M 156.847 580.334 L 152.926 580.334 L 152.926 572.492 L 160.768 572.492 L 160.768 576.413 L 156.847 576.413 L 156.847 580.334 Z M 141.162 576.413 L 137.241 576.413 L 137.241 572.492 L 141.162 572.492 L 141.162 576.413 Z M 105.872 525.438 L 101.95 525.438 L 101.95 521.517 L 105.872 521.517 L 105.872 525.438 Z M 101.95 521.517 L 98.029 521.517 L 98.029 517.595 L 101.95 517.595 L 101.95 521.517 Z M 98.029 517.595 L 94.108 517.595 L 94.108 513.674 L 98.029 513.674 L 98.029 517.595 Z M 94.108 513.674 L 90.187 513.674 L 90.187 509.753 L 94.108 509.753 L 94.108 513.674 Z M 50.975 529.359 L 50.975 525.438 L 54.896 525.438 L 54.896 529.359 L 50.975 529.359 Z M 27.448 529.359 L 31.369 529.359 L 31.369 525.438 L 47.054 525.438 L 47.054 529.359 L 50.975 529.359 L 50.975 533.28 L 54.896 533.28 L 54.896 548.965 L 50.975 548.965 L 50.975 552.886 L 47.054 552.886 L 47.054 556.807 L 39.211 556.807 L 39.211 560.728 L 35.29 560.728 L 35.29 564.65 L 31.369 564.65 L 31.369 568.571 L 43.133 568.571 L 43.133 572.492 L 39.211 572.492 L 39.211 576.413 L 35.29 576.413 L 35.29 580.334 L 31.369 580.334 L 31.369 572.492 L 27.448 572.492 L 27.448 568.571 L 19.606 568.571 L 19.606 564.65 L 23.527 564.65 L 23.527 560.728 L 27.448 560.728 L 27.448 556.807 L 31.369 556.807 L 31.369 552.886 L 35.29 552.886 L 35.29 548.965 L 39.211 548.965 L 39.211 545.044 L 43.133 545.044 L 43.133 541.123 L 47.054 541.123 L 47.054 537.201 L 43.133 537.201 L 43.133 533.28 L 39.211 533.28 L 39.211 537.201 L 35.29 537.201 L 35.29 541.123 L 31.369 541.123 L 31.369 545.044 L 27.448 545.044 L 27.448 548.965 L 23.527 548.965 L 23.527 552.886 L 19.606 552.886 L 19.606 556.807 L 15.684 556.807 L 15.684 560.728 L 11.763 560.728 L 11.763 552.886 L 7.842 552.886 L 7.842 548.965 L 0 548.965 L 0 545.044 L 3.921 545.044 L 3.921 541.123 L 7.842 541.123 L 7.842 537.201 L 11.763 537.201 L 11.763 548.965 L 15.684 548.965 L 15.684 545.044 L 19.606 545.044 L 19.606 541.123 L 23.527 541.123 L 23.527 533.28 L 27.448 533.28 L 27.448 529.359 Z M 35.29 545.044 L 35.29 541.123 L 39.211 541.123 L 39.211 545.044 L 35.29 545.044 Z M 31.369 548.965 L 31.369 545.044 L 35.29 545.044 L 35.29 548.965 L 31.369 548.965 Z M 27.448 552.886 L 27.448 548.965 L 31.369 548.965 L 31.369 552.886 L 27.448 552.886 Z M 23.527 556.807 L 23.527 552.886 L 27.448 552.886 L 27.448 556.807 L 23.527 556.807 Z M 19.606 560.728 L 19.606 556.807 L 23.527 556.807 L 23.527 560.728 L 19.606 560.728 Z M 15.684 564.65 L 15.684 560.728 L 19.606 560.728 L 19.606 564.65 L 15.684 564.65 Z M 0 541.123 L 0 537.201 L 3.921 537.201 L 3.921 541.123 L 0 541.123 Z M 39.211 580.334 L 39.211 576.413 L 43.133 576.413 L 43.133 580.334 L 39.211 580.334 Z M 19.606 576.413 L 19.606 572.492 L 23.527 572.492 L 23.527 576.413 L 19.606 576.413 Z M 11.763 580.334 L 11.763 572.492 L 7.842 572.492 L 7.842 568.571 L 0 568.571 L 0 560.728 L 3.921 560.728 L 3.921 564.65 L 15.684 564.65 L 15.684 576.413 L 19.606 576.413 L 19.606 580.334 L 11.763 580.334 Z M 0 576.413 L 0 572.492 L 7.842 572.492 L 7.842 580.334 L 3.921 580.334 L 3.921 576.413 L 0 576.413 Z M 3.921 560.728 L 3.921 556.807 L 7.842 556.807 L 7.842 560.728 L 3.921 560.728 Z M 54.896 525.438 L 54.896 521.517 L 58.817 521.517 L 58.817 525.438 L 54.896 525.438 Z M 58.817 521.517 L 58.817 517.595 L 62.739 517.595 L 62.739 521.517 L 58.817 521.517 Z M 62.739 517.595 L 62.739 513.674 L 66.66 513.674 L 66.66 517.595 L 62.739 517.595 Z M 66.66 513.674 L 66.66 509.753 L 70.581 509.753 L 70.581 513.674 L 66.66 513.674 Z M 109.793 470.541 L 109.793 474.463 L 105.872 474.463 L 105.872 470.541 L 109.793 470.541 Z M 133.32 470.541 L 129.399 470.541 L 129.399 474.463 L 113.714 474.463 L 113.714 470.541 L 109.793 470.541 L 109.793 466.62 L 105.872 466.62 L 105.872 450.935 L 109.793 450.935 L 109.793 447.014 L 113.714 447.014 L 113.714 443.093 L 121.556 443.093 L 121.556 439.172 L 125.477 439.172 L 125.477 435.251 L 129.399 435.251 L 129.399 431.33 L 117.635 431.33 L 117.635 427.408 L 121.556 427.408 L 121.556 423.487 L 125.477 423.487 L 125.477 419.566 L 129.399 419.566 L 129.399 427.408 L 133.32 427.408 L 133.32 431.33 L 141.162 431.33 L 141.162 435.251 L 137.241 435.251 L 137.241 439.172 L 133.32 439.172 L 133.32 443.093 L 129.399 443.093 L 129.399 447.014 L 125.477 447.014 L 125.477 450.935 L 121.556 450.935 L 121.556 454.857 L 117.635 454.857 L 117.635 458.778 L 113.714 458.778 L 113.714 462.699 L 117.635 462.699 L 117.635 466.62 L 121.556 466.62 L 121.556 462.699 L 125.477 462.699 L 125.477 458.778 L 129.399 458.778 L 129.399 454.857 L 133.32 454.857 L 133.32 450.935 L 137.241 450.935 L 137.241 447.014 L 141.162 447.014 L 141.162 443.093 L 145.083 443.093 L 145.083 439.172 L 149.004 439.172 L 149.004 447.014 L 152.926 447.014 L 152.926 450.935 L 160.768 450.935 L 160.768 454.857 L 156.847 454.857 L 156.847 458.778 L 152.926 458.778 L 152.926 462.699 L 149.004 462.699 L 149.004 450.935 L 145.083 450.935 L 145.083 454.857 L 141.162 454.857 L 141.162 458.778 L 137.241 458.778 L 137.241 466.62 L 133.32 466.62 L 133.32 470.541 Z M 125.477 454.857 L 125.477 458.778 L 121.556 458.778 L 121.556 454.857 L 125.477 454.857 Z M 129.399 450.935 L 129.399 454.857 L 125.477 454.857 L 125.477 450.935 L 129.399 450.935 Z M 133.32 447.014 L 133.32 450.935 L 129.399 450.935 L 129.399 447.014 L 133.32 447.014 Z M 137.241 443.093 L 137.241 447.014 L 133.32 447.014 L 133.32 443.093 L 137.241 443.093 Z M 141.162 439.172 L 141.162 443.093 L 137.241 443.093 L 137.241 439.172 L 141.162 439.172 Z M 145.083 435.251 L 145.083 439.172 L 141.162 439.172 L 141.162 435.251 L 145.083 435.251 Z M 160.768 458.778 L 160.768 462.699 L 156.847 462.699 L 156.847 458.778 L 160.768 458.778 Z M 121.556 419.566 L 121.556 423.487 L 117.635 423.487 L 117.635 419.566 L 121.556 419.566 Z M 141.162 423.487 L 141.162 427.408 L 137.241 427.408 L 137.241 423.487 L 141.162 423.487 Z M 149.004 419.566 L 149.004 427.408 L 152.926 427.408 L 152.926 431.33 L 160.768 431.33 L 160.768 439.172 L 156.847 439.172 L 156.847 435.251 L 145.083 435.251 L 145.083 423.487 L 141.162 423.487 L 141.162 419.566 L 149.004 419.566 Z M 160.768 423.487 L 160.768 427.408 L 152.926 427.408 L 152.926 419.566 L 156.847 419.566 L 156.847 423.487 L 160.768 423.487 Z M 156.847 439.172 L 156.847 443.093 L 152.926 443.093 L 152.926 439.172 L 156.847 439.172 Z M 105.872 474.463 L 105.872 478.384 L 101.95 478.384 L 101.95 474.463 L 105.872 474.463 Z M 101.95 478.384 L 101.95 482.305 L 98.029 482.305 L 98.029 478.384 L 101.95 478.384 Z M 98.029 482.305 L 98.029 486.226 L 94.108 486.226 L 94.108 482.305 L 98.029 482.305 Z M 94.108 486.226 L 94.108 490.147 L 90.187 490.147 L 90.187 486.226 L 94.108 486.226 Z M 90.187 372.512 L 90.187 376.433 L 86.265 376.433 L 86.265 380.354 L 82.344 380.354 L 82.344 376.433 L 78.423 376.433 L 78.423 380.354 L 74.502 380.354 L 74.502 376.433 L 70.581 376.433 L 70.581 372.512 L 74.502 372.512 L 74.502 368.591 L 78.423 368.591 L 78.423 372.512 L 82.344 372.512 L 82.344 368.591 L 86.265 368.591 L 86.265 372.512 L 90.187 372.512 Z M 90.188 623.467 L 90.188 627.388 L 86.267 627.388 L 86.267 631.309 L 82.346 631.309 L 82.346 627.388 L 78.425 627.388 L 78.425 631.309 L 74.503 631.309 L 74.503 627.388 L 70.582 627.388 L 70.582 623.467 L 74.503 623.467 L 74.503 619.546 L 78.425 619.546 L 78.425 623.467 L 82.346 623.467 L 82.346 619.546 L 86.267 619.546 L 86.267 623.467 L 90.188 623.467 Z M 176.453 372.512 L 176.453 376.433 L 172.532 376.433 L 172.532 380.354 L 168.61 380.354 L 168.61 384.275 L 164.689 384.275 L 164.689 388.196 L 160.768 388.196 L 160.768 384.275 L 156.847 384.275 L 156.847 380.354 L 152.926 380.354 L 152.926 376.433 L 149.004 376.433 L 149.004 372.512 L 152.926 372.512 L 152.926 368.59 L 156.847 368.59 L 156.847 364.669 L 160.768 364.669 L 160.768 360.748 L 164.689 360.748 L 164.689 364.669 L 168.61 364.669 L 168.61 368.59 L 172.532 368.59 L 172.532 372.512 L 176.453 372.512 Z M 160.768 368.59 L 160.768 372.512 L 156.847 372.512 L 156.847 376.433 L 160.768 376.433 L 160.768 380.354 L 164.689 380.354 L 164.689 376.433 L 168.61 376.433 L 168.61 372.512 L 164.689 372.512 L 164.689 368.59 L 160.768 368.59 Z M 176.453 623.468 L 176.453 627.389 L 172.532 627.389 L 172.532 631.31 L 168.611 631.31 L 168.611 635.231 L 164.69 635.231 L 164.69 639.152 L 160.768 639.152 L 160.768 635.231 L 156.847 635.231 L 156.847 631.31 L 152.926 631.31 L 152.926 627.389 L 149.005 627.389 L 149.005 623.468 L 152.926 623.468 L 152.926 619.546 L 156.847 619.546 L 156.847 615.625 L 160.768 615.625 L 160.768 611.704 L 164.69 611.704 L 164.69 615.625 L 168.611 615.625 L 168.611 619.546 L 172.532 619.546 L 172.532 623.468 L 176.453 623.468 Z M 160.768 619.546 L 160.768 623.468 L 156.847 623.468 L 156.847 627.389 L 160.768 627.389 L 160.768 631.31 L 164.69 631.31 L 164.69 627.389 L 168.611 627.389 L 168.611 623.468 L 164.69 623.468 L 164.69 619.546 L 160.768 619.546 Z M 152.929 482.305 L 152.929 478.384 L 156.85 478.384 L 156.85 474.462 L 160.771 474.462 L 160.771 470.541 L 164.692 470.541 L 164.692 474.462 L 168.613 474.462 L 168.613 478.384 L 172.535 478.384 L 172.535 482.305 L 168.613 482.305 L 168.613 486.226 L 164.692 486.226 L 164.692 490.147 L 160.771 490.147 L 160.771 486.226 L 156.85 486.226 L 156.85 482.305 L 152.929 482.305 Z M 160.771 478.384 L 160.771 482.305 L 164.692 482.305 L 164.692 478.384 L 160.771 478.384 Z M 152.929 521.517 L 152.929 517.596 L 156.85 517.596 L 156.85 513.674 L 160.771 513.674 L 160.771 509.753 L 164.693 509.753 L 164.693 513.674 L 168.614 513.674 L 168.614 517.596 L 172.535 517.596 L 172.535 521.517 L 168.614 521.517 L 168.614 525.438 L 164.693 525.438 L 164.693 529.359 L 160.771 529.359 L 160.771 525.438 L 156.85 525.438 L 156.85 521.517 L 152.929 521.517 Z M 160.771 517.596 L 160.771 521.517 L 164.693 521.517 L 164.693 517.596 L 160.771 517.596 Z"/>
  <path id="frontman" style="fill: #cc0000" d="M 352.328 390.011 C 355.131 390.008 359.566 394.148 356.495 396.031 C 355.82 393.906 348.931 392.22 352.328 390.011 Z M 355.106 410.849 L 353.717 411.775 C 353.802 411.983 352.456 409.73 353.717 409.459 C 355.915 406.716 351.87 399.141 351.865 398.834 C 349.902 397.883 362.138 404.435 359.737 411.312 C 357.999 409.523 356.29 409.393 355.106 410.849 Z M 344.919 391.4 C 345.534 391.65 345.654 393.854 343.529 393.252 C 342.914 393.002 342.794 390.798 344.919 391.4 Z M 363.441 447.43 C 364.078 443.152 362.105 439.851 360.663 436.317 C 360.663 434.774 360.663 433.23 360.663 431.686 C 362.421 427.856 364.193 418.335 367.609 420.11 C 371.485 426.363 367.573 430.777 367.609 437.243 C 367.609 438.786 367.609 440.33 367.609 441.874 C 367.18 443.637 366.912 446.628 366.683 447.893 C 366.734 447.893 363.441 447.43 363.441 447.43 Z M 583.842 472.436 C 583.842 472.436 583.131 469.794 584.305 470.12 C 586.365 470.444 597.981 474 591.251 475.677 C 591.354 476.655 587.951 475.88 586.62 476.14 C 585.812 474.788 583.943 474.495 583.842 472.436 Z M 484.284 610.891 C 484.924 610.227 484.756 603.756 484.284 602.093 C 484.88 594.434 484.629 587.47 493.082 586.812 C 494.332 586.567 492.757 581.732 494.008 580.792 C 495.946 577.174 501.891 577.562 502.806 572.92 C 505.916 570.998 505.981 564.6 507.9 560.881 C 514.729 561.737 521.392 552.637 517.161 543.284 C 517.514 542.763 521.693 544.313 521.329 542.358 C 525.898 541.679 522.817 533.35 527.348 532.634 C 527.348 532.634 531.053 533.097 532.905 533.097 C 538.593 532.121 534.201 542.684 541.24 540.969 C 547.983 540.5 539.651 533.166 545.408 531.245 C 547.769 528.895 549.526 524.48 553.28 522.91 C 556.263 520.337 558.373 516.889 562.078 515.037 C 567.121 513.285 558.129 506.949 564.856 505.313 C 567.121 510.432 575.164 507.225 569.487 502.535 C 566.33 499.318 572.331 495.607 571.802 490.958 C 574.432 488.031 574.727 482.769 578.285 480.771 C 578.428 480.965 579.057 479.892 580.137 480.308 C 587.342 481.823 580.344 486.114 577.822 487.717 C 577.732 492.726 582.697 495.906 578.285 499.293 C 571.635 499.839 579.821 505.611 581.064 507.165 C 582.887 512.856 577.548 514.301 575.507 517.353 C 573.923 517.904 568.542 516.376 567.635 518.279 C 566.873 521.968 570.469 527.559 575.044 528.466 C 575.269 533.242 569.639 535.672 569.024 540.969 C 574.816 546.709 567.914 550.194 562.078 549.767 C 553.779 549.745 564.413 561.707 554.206 559.491 C 554.257 559.491 552.556 559.491 551.891 559.491 C 541.382 552.223 553.759 572.214 547.26 574.772 C 544.056 581.755 539.6 587.488 532.442 590.517 C 531.661 597.546 522.772 594.216 520.865 600.704 C 521.139 602.237 518.971 605.182 517.161 603.945 C 510.914 604.64 513.393 615.346 503.732 613.207 C 502.409 613.697 501.111 615.957 499.102 616.448 C 497.51 616.419 490.497 617.091 489.377 617.374 C 486.053 618.215 482.108 615.207 484.284 610.891 Z M 555.595 564.122 C 558.652 565.372 557.081 568.887 554.206 569.216 C 551.149 567.965 552.72 564.451 555.595 564.122 Z M 588.936 461.322 C 590.675 462.782 601.316 465.832 594.955 467.342 C 595.411 468.058 593.097 467.767 592.177 467.805 C 590.065 466.957 581.687 461.671 588.936 461.322 Z M 597.734 443.726 C 599.687 444.37 601.993 450.372 596.808 449.283 C 594.341 448.142 592.937 443.492 597.734 443.726 Z M 597.271 458.081 C 597.886 458.331 598.007 460.535 595.882 459.933 C 595.267 459.683 595.146 457.479 597.271 458.081 Z M 477.813 858.629 C 480.009 850.73 482.067 841.58 484.759 833.624 C 485.643 831.545 484.961 830.322 485.222 828.994 C 487.644 823.701 488.597 816.931 490.315 810.934 C 493.692 801.983 482.924 801.9 477.35 804.914 C 475.964 804.491 472.094 804.589 470.867 805.377 C 465.084 808.114 439.789 811.809 437.526 812.323 C 431.246 813.845 426.881 811.732 426.413 810.934 C 421.175 803.624 385.841 802.24 381.496 805.377 C 380.882 805.637 377.479 804.863 376.865 805.84 C 372.573 806.901 370.814 811.897 368.067 815.102 C 364.791 818 363.486 822.872 361.121 826.678 C 359.196 830.105 356.603 834.268 356.027 839.644 C 353.798 843.589 351.173 847.136 349.082 851.22 C 347.045 854.536 345.135 859.38 343.062 863.26 C 340.127 865.781 337.885 863.943 335.804 861.851 C 334.499 860.539 326.679 851.549 325.465 846.59 C 321.347 842.098 323.184 823.684 323.184 823.684 C 324.022 811.349 315.798 777.598 311.11 773.889 C 310.058 768.768 307.442 765.211 305.554 760.923 C 303.93 756.876 299.516 754.241 299.997 747.495 C 299.721 744.684 299.391 737.501 298.608 733.14 C 297.391 724.786 295.449 717.159 292.588 710.45 C 290.167 703.721 286.198 697.377 281.474 692.39 C 277.57 686.727 271.576 683.148 266.193 678.961 C 260.29 675.715 252.998 672.696 246.282 669.7 C 234.663 665.375 250.405 659.745 253.691 657.661 C 259.172 653.988 264.302 648.811 268.046 642.843 C 272.076 637.304 274.807 630.526 277.307 623.394 C 280.245 615.014 283.287 584.184 282.864 581.255 C 282.864 576.625 280.607 542.905 281.011 541.432 C 281.011 540.251 281.011 536.375 281.011 534.486 C 282.143 528.359 282.361 520.055 282.864 512.722 C 283.17 509.239 284.984 477.179 285.179 469.657 C 286.639 465.448 287.287 459.047 288.42 453.913 C 290.109 445.349 295.537 453.099 294.903 458.544 C 296.449 462.911 301.789 465.63 300.923 471.047 C 303.462 473.903 309.098 480.75 308.332 483.549 C 309.53 482.824 311.232 483.549 312.5 483.549 C 317.516 489.028 319.329 497.713 325.002 502.535 C 331.087 504.586 325.056 526.69 336.116 516.89 C 340.192 510.471 341.01 500.791 346.766 496.052 C 349.617 488.808 350.935 478.917 356.491 473.825 C 357.468 472.95 356.693 470.322 356.954 468.731 C 357.456 466.764 358.012 464.85 358.343 462.711 C 358.854 460.736 358.545 459.411 358.806 458.081 C 361.357 450.9 367.369 458.929 363.436 464.101 C 362.567 469.405 360.667 473.68 361.121 480.308 C 361.029 485.751 362.368 491.168 365.289 494.2 C 368.65 497.012 369.142 502.431 376.402 501.89 C 376.402 501.89 380.107 502.072 381.959 502.072 C 384.557 503.437 388.619 508.356 392.609 504.85 C 395.113 501.797 398.195 499.322 402.334 497.904 C 404.928 495.787 410.632 495.32 414.373 493.737 C 422.024 493.329 417.804 500.326 413.447 500.219 C 412.144 500.46 409.86 499.72 409.28 500.683 C 404.144 503.881 398.409 506.483 393.072 509.481 C 389.602 514.345 383.44 516.519 378.254 519.668 C 373.866 523.614 367.942 526.027 362.047 528.466 C 355.428 528.231 353.048 541.981 361.121 542.358 C 361.121 542.358 365.96 543.338 367.141 542.358 C 367.616 542.572 368.791 541.725 369.456 541.432 C 370.331 541.432 372.959 541.432 374.55 541.432 C 381.606 544.471 385.167 552.119 393.999 553.935 C 401.194 551.347 408.105 546.246 417.152 546.063 C 417.152 546.063 427.423 546.526 432.433 546.526 C 435.394 548.704 442.19 545.808 446.788 547.452 C 452.593 551.3 446.118 554.277 441.231 553.935 C 435.192 554.055 432.171 556.096 427.802 554.398 C 424.619 555.831 418.916 553.051 414.373 553.009 C 413.355 553.146 412.581 552.329 411.595 553.009 C 405.442 557.818 397.185 557.086 390.294 561.344 C 389.419 561.344 386.791 561.344 385.2 561.344 C 378.04 559.375 373.455 563.44 370.382 566.9 C 367.512 573.377 377.88 572.727 381.496 575.236 C 381.496 575.385 388.288 575.847 391.683 575.699 C 396.456 576.483 399.38 579.116 403.26 580.792 C 406.324 583.284 408.62 586.548 409.743 590.98 C 409.743 592.832 410.206 596.536 410.206 596.536 C 412.022 598.166 413.379 603.649 408.817 603.945 C 407.506 603.756 400.367 604.385 397.703 603.482 C 395.513 603.82 394.899 602.584 393.072 602.556 C 389.872 601.686 383.631 602.339 379.181 602.093 C 378.589 602.093 376.28 602.093 375.013 602.093 C 370.263 600.542 364.948 602.107 364.826 607.187 C 364.456 608.918 364.826 610.428 364.826 610.428 C 366.514 614.915 371.952 615.652 371.772 622.005 C 370.518 623.893 374.73 631.433 385.663 631.266 C 390.907 632.502 417.089 641.157 425.95 639.138 C 434.317 641.166 440.898 637.86 447.251 635.897 C 448.125 634.92 450.753 635.693 452.344 635.434 C 459.791 636.258 462.327 630.859 467.625 628.951 C 469.537 623.63 478.762 622.866 475.961 631.266 C 471.364 633.294 470.122 639.981 465.773 642.843 C 462.24 648.348 471.111 651.057 476.887 651.178 C 476.887 652.034 492.168 654.887 494.02 653.493 C 501.65 656.044 492.586 661.731 491.705 665.07 C 490.124 669.797 488.478 675.785 484.759 678.961 C 482.223 683.217 478.556 686.343 476.887 691.464 C 476.658 696.03 469.628 700.827 472.719 705.356 C 473.592 709.767 486.453 699.272 489.389 692.39 C 493.687 687.736 496.586 681.68 502.355 678.498 C 507.051 670.251 513.995 680.652 519.488 680.351 C 529.173 675.572 515.723 670.395 517.636 662.754 C 517.721 662.078 517.704 659.786 516.71 659.513 C 516.515 659.115 515.76 657.563 515.321 656.734 C 514.917 654.998 515.857 652.539 515.321 652.104 C 516.498 648.571 520.244 646.144 522.73 643.306 C 525.448 640.467 536.159 629.182 538.937 626.635 C 541.156 623.297 550.292 610.438 553.755 608.576 C 557.204 606.469 565.011 592.049 566.258 587.738 C 568.912 582.598 573.767 586.331 574.593 590.517 C 576.289 593.531 578.079 597.912 580.149 601.167 C 582.067 604.807 587.015 621.852 588.485 625.709 C 589.496 630.257 594.97 646.779 596.82 650.252 C 598.18 654.447 606.144 668.714 607.933 672.479 C 610.347 675.873 609.52 683.055 606.544 684.981 C 604.845 687.991 602.057 691.376 600.524 695.169 C 598.711 698.91 597.197 702.957 596.357 707.671 C 595.457 711.482 593.464 715.664 591.263 718.785 C 588.551 721.628 586.114 724.749 583.854 728.046 C 581.713 730.616 573.541 745.054 570.888 747.958 C 568.6 751.227 559.018 763.873 556.996 767.406 C 554.572 769.694 545.647 783.377 544.031 787.318 C 542.551 791.393 540.981 795.384 539.863 799.821 C 538.622 804.136 538.101 809.17 535.696 812.323 C 534.642 815.981 530.743 818.255 529.213 822.048 C 525.864 824.256 525.138 829.086 522.267 831.772 C 520.007 835.069 516.131 836.75 512.542 838.718 C 508.962 840.695 502.021 839.311 499.577 842.422 C 499.236 843.145 496.213 843.145 495.872 842.422 C 487.39 834.569 486.646 852.429 483.833 857.703 C 478.749 863.422 478.335 873.818 472.256 878.541 C 472.749 878.981 471.212 879.148 470.404 879.004 C 465.742 870.965 476.659 865.988 477.813 858.629 Z M 354.175 800.747 C 359.934 796.32 365.41 791.606 370.845 786.855 C 375.236 781.057 382.035 777.668 387.516 772.963 C 390.541 765.966 401.261 766.077 403.723 759.071 C 404.384 756.793 400.537 757.566 400.481 758.608 C 394.444 761.655 388.681 765.605 382.885 768.332 C 377.068 771.467 371.077 774.431 366.678 778.983 C 362.336 783.59 355.388 785.6 352.323 791.485 C 346.878 794.991 345.455 802.525 342.599 808.619 C 342.062 809.054 343.003 811.513 342.599 813.249 C 340.612 814.991 338.563 821.534 342.599 822.048 C 342.287 821.788 344.763 822.562 344.451 821.585 C 346.397 813.347 351.01 807.767 354.175 800.747 Z M 506.06 759.534 C 506.06 758.659 506.06 756.033 506.06 754.441 C 506.524 752.093 508.944 750.662 510.69 750.273 C 511.031 749.551 514.054 749.551 514.395 750.273 C 520.333 757.552 530.761 754.052 522.267 745.642 C 515.757 743.281 513.404 734.686 504.67 735.918 C 504.079 735.918 501.77 735.918 500.503 735.918 C 495.305 737.131 486.272 728.861 489.389 739.159 C 492.267 743.383 497.492 745.258 500.04 749.81 C 500.04 752.588 500.04 757.024 500.04 760.46 C 500.232 764.137 506.54 764.191 506.06 759.534 Z M 349.082 754.441 C 354.26 747.888 347.182 745.527 343.988 751.199 C 335.741 753.209 349.334 742.568 338.894 743.79 C 336.323 739.877 332.625 737.094 327.318 735.918 C 323.962 735.492 317.552 725.522 317.593 733.14 C 319.192 735.594 328.655 739.47 323.613 741.938 C 326.09 746.365 326.773 750.092 324.539 753.977 C 329.04 755.959 330.51 760.974 335.653 762.313 L 336.579 761.85 C 340.983 759.673 345.315 756.663 349.082 754.441 Z M 395.851 749.81 C 399.438 748.842 407.946 745.527 401.871 740.086 C 396.419 743.471 388.756 740.859 397.24 737.307 C 400.681 735.511 409.101 731.663 409.743 738.696 C 414.586 741.192 418.577 741.049 425.024 741.938 C 428.179 742.544 436.97 748.185 438.452 742.401 C 436.248 738.122 432.149 735.737 428.265 733.14 C 422.605 730.977 419.216 730.121 414.836 729.898 C 414.596 728.597 415.336 726.31 414.373 725.731 C 409.58 720.47 406.291 729.37 401.871 729.898 C 397.217 731.825 391.531 733.482 388.905 736.844 C 384.343 739.072 379.825 741.35 376.402 744.716 C 368.863 749.064 380.063 751.13 381.496 753.977 C 380.437 750.791 391.192 751.219 395.851 749.81 Z M 369.919 736.381 C 374.593 736.289 383.335 733.765 379.181 729.435 C 378.979 728.453 375.24 729.245 373.624 728.972 C 371.622 729.06 360.422 728.782 358.806 728.509 C 351.796 724.795 358.141 720.285 362.973 720.174 C 367.192 718.859 372.162 712.413 364.826 711.376 C 360.772 717.568 339.405 715.845 337.968 713.228 C 325.194 713.751 339.319 721.762 343.988 722.026 C 348.869 722.434 359.548 733.658 346.766 733.603 C 342.429 728.986 332.613 729.852 327.318 726.194 C 328.68 732.116 337.181 733.945 342.136 736.844 C 345.624 736.58 351.056 737.289 353.249 736.381 C 356.57 734.302 366.598 734.302 369.919 736.381 Z M 447.714 721.563 C 451.894 727.282 453.795 715.731 451.881 713.228 C 448.656 709.973 445.972 706.171 442.62 703.041 C 439.913 701.489 433.946 694.534 432.433 698.41 C 434.999 702.328 438.843 704.967 440.768 709.524 C 443.339 713.219 445.944 717.664 447.714 721.563 Z M 525.508 713.691 C 526.225 713.075 526.224 709.676 525.508 709.06 C 521.753 705.114 521.446 692.472 521.804 692.39 C 515.617 685.893 513.102 699.16 508.838 701.188 C 507.392 702.837 509.422 704.546 509.764 705.819 C 516.354 706.365 508.941 717.743 516.247 717.859 C 517.816 719.488 524.733 716.174 525.508 713.691 Z M 319.909 652.567 C 319.879 658.137 339.354 660.142 339.82 655.345 C 343.642 654.785 346.928 652.771 348.618 650.715 C 351.43 650.437 354.624 650.629 357.417 650.252 C 360.569 650.062 361.907 645.015 359.732 643.769 C 354.081 639.397 345.113 637.754 339.82 633.581 C 333.628 629.752 328.557 624.214 322.687 620.616 C 318.177 610.845 307.141 622.278 311.574 627.562 C 315.967 633.192 315.779 643.986 320.372 648.862 C 319.515 648.598 320.056 651.446 319.909 652.567 Z M 279.627 439.558 C 278.395 438.708 279.651 436.941 279.627 435.854 C 278.158 426.646 271.13 437.714 266.661 435.391 C 268.302 430.524 261.018 423.024 266.661 419.647 C 266.661 419.647 271.193 421.139 270.829 419.184 C 278.027 417.345 271.598 410.918 266.661 415.016 C 265.342 420.394 259.122 417.208 256.474 414.553 C 249.883 412.98 251.873 409.003 256.937 407.607 C 261.681 408.783 268.544 404.995 265.272 401.587 C 264.691 400.625 262.407 401.365 261.104 401.124 C 255.572 407.916 248.491 398.22 243.045 403.44 C 238.53 399.898 236.691 391.706 237.488 385.38 C 238.682 383.935 236.837 380.303 237.025 380.286 C 239.032 379.19 241.039 376.474 243.045 374.73 C 243.762 374.116 243.762 370.713 243.045 370.099 C 240.921 367.192 242.583 359.067 235.173 360.838 C 233.504 360.452 226.654 359.744 224.986 361.301 C 220.044 365.77 230.808 365.66 230.079 370.562 C 229.37 376.053 229.087 380.087 236.099 378.897 C 234.584 384.007 225.218 382.571 218.503 383.065 C 213.126 381.033 208.752 377.996 206 373.341 C 206 372.749 206 370.44 206 369.173 C 206.121 364.262 209.323 361.002 211.094 357.133 C 213.33 354.338 215.816 350.361 218.966 347.872 C 221.331 345.205 226.672 344.084 229.153 340.926 C 231.057 337.982 234.438 332.718 231.931 327.96 C 231.591 326.757 228.567 328.237 228.227 327.034 C 224.293 325.616 218.451 324.704 216.187 321.015 C 212.35 318.678 209.475 315.378 206.926 311.753 C 206.665 310.162 207.441 307.534 206.463 306.66 C 211.568 300.527 216.738 318.266 225.449 310.364 C 222.133 303.475 243.347 305.073 231.005 300.64 C 230.221 302.235 226.997 300.983 224.986 300.64 C 217.148 298.696 210.909 294.026 210.631 283.97 C 213.448 274.076 215.685 269.968 213.409 258.964 C 214.178 256.357 213.6 255.024 213.872 253.407 C 215.533 250.037 217.742 245.783 221.744 244.146 C 224.186 239.568 229.572 244.346 233.784 242.757 C 234.862 245.378 230.875 242.935 231.468 245.072 C 228.921 247.876 225.499 251.209 223.133 254.797 C 221.747 264.344 229.794 258.408 232.395 256.649 C 233.938 256.649 235.482 256.649 237.025 256.649 C 239.66 255.561 244.541 257.557 241.193 260.353 C 239.89 260.594 238.28 259.816 237.025 260.816 C 227.081 264.762 234.16 274.124 241.193 275.634 C 241.193 278.104 241.193 280.574 241.193 283.043 C 234.867 293.999 249.009 287.656 248.602 280.728 C 250.008 278.444 247.351 260.201 245.823 254.797 C 249.651 252.021 255.327 243.496 251.843 238.126 C 251.603 236.823 252.343 234.54 251.38 233.959 C 249.289 230.901 242.895 223.254 250.917 220.993 C 254.95 215.676 261.513 218.856 265.272 222.382 C 271.153 224.317 273.763 216.945 275.922 212.658 C 277.544 207.894 274.527 201.055 278.238 195.525 C 280.2 190.862 284.272 187.004 287.962 183.485 C 295.051 183.166 298.185 178.889 302.317 175.613 C 308.903 176.897 310.226 164.437 316.209 171.909 C 322.407 172.674 326.308 166.784 324.081 159.406 C 328.519 157.219 330.108 150.877 335.194 148.755 C 341.711 149.375 343.797 139.882 349.549 143.662 C 347.358 146.858 343.923 160.579 350.938 152.46 C 355.28 149.393 358.843 145.546 362.978 142.273 C 363.937 133.37 373.515 144.709 376.87 138.105 C 381.693 141.275 389.968 143.746 386.594 133.011 C 381.57 130.541 381.912 118.286 389.373 124.676 C 392.175 127.036 400.318 135.181 406.506 133.011 C 414.322 133.977 419.52 116.541 423.639 126.992 C 422.974 127.944 422.067 130.108 423.639 130.696 C 423.639 130.696 430.291 125.076 434.753 124.213 C 435.528 122.575 437.781 124.826 436.142 125.602 C 430.228 130.452 438.438 137.079 442.162 133.474 C 446.023 130.617 456.171 130.344 451.886 137.642 C 451.986 141.055 457.98 142.488 460.239 139.504 C 460.233 139.501 460.227 139.497 460.221 139.494 C 460.436 138.752 461.55 137.843 462.073 138.105 C 471.19 135.307 471.926 123.807 459.295 123.75 C 457.555 116.144 470.365 123.479 471.335 126.528 C 473.906 126.735 475.033 127.538 477.354 128.844 C 483.379 132.914 489.401 138.1 492.635 145.514 C 495.114 151.272 503.77 153.407 505.601 145.514 C 507.135 143.233 510.253 145.321 510.232 147.366 C 510.232 148.91 510.232 150.453 510.232 151.997 C 509.352 154.875 517.566 156.2 522.734 151.997 C 524.864 150.502 533.845 147.535 536.626 151.534 C 538.353 156.671 533.317 159.973 532.922 164.963 C 530.124 167.636 523.117 165.497 522.271 171.445 C 519.201 170.586 511.241 171.105 516.715 177.465 C 518.338 181.193 519.221 187.065 523.197 189.042 C 527.308 189.096 529.814 179.859 533.848 187.19 C 538.199 191.715 541.54 184.267 544.961 183.022 C 544.961 183.022 548.835 183.393 549.592 182.559 C 555.8 180.786 560.1 176.517 561.632 171.445 C 566.153 171.042 570.259 185.035 572.745 172.372 C 573.258 172.623 574.142 171.485 575.523 171.909 C 576.487 173.414 575.47 176.902 576.913 177.928 C 576.913 181.016 576.913 184.103 576.913 187.19 C 578.513 192.163 591.234 186.078 584.322 198.303 C 578.318 207.369 597.452 203.775 591.731 211.732 C 578.858 210.985 583.826 217.689 589.878 220.993 C 590.112 228.071 602.098 226.83 601.455 233.959 C 600.894 237.35 601.163 243.65 603.77 248.314 C 611.773 255.638 594.912 250.821 593.12 257.575 C 592.244 257.859 590.579 257.216 589.878 256.649 C 584.558 254.869 580.408 251.918 581.08 244.146 C 576.927 241.674 578.611 232.061 575.523 227.939 C 575.247 226.72 576.034 222.675 575.06 221.456 C 571.876 217.065 572.044 208.079 563.947 208.027 C 557.456 203.892 549.874 216.733 547.74 208.027 C 553.206 199.474 537.977 204.815 535.7 207.564 C 533.637 213.467 522.515 210.862 517.641 208.49 C 516.11 207.632 514.776 208.268 513.473 208.027 C 507.004 202.213 500.893 209.807 494.025 207.101 C 492.979 206.771 491.124 207.101 489.857 207.101 C 484.985 205.296 474.797 204.859 472.724 210.343 C 471.078 216.272 461.811 215.824 457.906 220.067 C 455.38 226.761 444.457 223.233 442.162 219.141 C 437.261 217.387 433.692 209.696 428.733 209.88 C 427.795 211.399 428.542 216.29 428.27 219.141 C 425.899 229.651 415.904 218.12 412.526 216.363 C 406.555 212.659 403.962 206.576 392.614 209.417 C 392.037 210.001 389.74 210.001 388.446 209.417 C 383.54 207.368 382.768 214.106 379.648 215.899 C 377.151 220.648 372.495 220.252 371.313 214.973 C 368.553 215.235 363.805 217.886 359.737 218.678 C 355.854 220.351 351.049 221.104 350.475 226.087 C 350.475 226.679 350.475 228.987 350.475 230.254 C 349.361 232.262 343.61 226.623 339.362 229.791 C 332.961 226.712 332.511 239.57 325.47 239.979 C 317.841 240.871 316.738 249.481 311.115 252.944 C 310.152 253.525 310.892 255.809 310.652 257.112 C 300.908 263.116 305.663 301.187 310.652 305.733 C 314.649 305.777 315.912 319.123 310.652 317.773 C 309.343 316.666 307.15 318.211 306.484 319.162 C 303.178 324.702 300.856 332.072 303.706 338.611 C 295.56 339.393 300.222 357.472 307.874 347.872 C 315.473 348.36 322.449 346.119 330.101 347.872 C 336.513 349.666 342.572 353.021 349.549 354.818 C 356.969 356.041 359.499 362.157 364.367 365.932 C 368.941 369.564 372.996 374.923 374.092 382.602 C 374.092 383.783 375.018 390.011 375.018 390.011 C 375.982 391.825 375.203 395.383 375.481 397.883 C 373.445 402.947 372.643 409.246 369.924 413.627 C 362.088 413.335 373.199 405.07 364.367 403.44 C 363.794 403.098 362.016 403.507 362.978 401.587 C 366.158 401.104 368.475 395.401 364.83 392.789 C 366.264 393.413 366.263 388.46 364.83 389.085 C 363.789 386.177 363.55 385.697 363.904 381.676 C 363.664 380.373 364.404 378.089 363.441 377.508 C 361.179 373.146 354.889 371.505 350.938 368.247 C 344.482 368.406 339.113 363.238 333.342 365.468 C 331.149 365.745 327.892 364.958 326.396 365.932 C 319.047 365.238 314.735 362.921 308.8 367.321 C 303.331 375.328 315.127 374.061 317.135 378.897 C 320.145 382.829 327.97 383.23 331.953 386.769 C 335.293 386.968 344.87 388.541 334.731 392.789 C 333.428 393.029 331.144 392.289 330.564 393.252 C 326.659 398.244 332.945 400.913 335.657 397.42 C 335.15 401.451 334.684 410.17 330.564 408.533 C 331.152 401.32 319.256 405.286 319.45 397.883 C 317.297 399.376 319.754 408.241 325.007 408.996 C 325.599 408.996 327.907 408.996 329.174 408.996 C 329.754 410.103 329.606 411.644 329.174 411.312 C 326.088 411.312 323 411.312 319.913 411.312 C 314.849 405.444 314.396 411.971 314.357 415.479 C 310.317 417.471 306.764 419.823 303.243 415.016 C 300.84 417.193 297.726 421.734 297.686 426.13 C 300.672 429.846 292.416 431.051 292.593 435.854 C 292.275 437.847 292.573 445.75 290.277 445.115 C 287.402 440.916 284.165 437.975 279.627 439.558 Z M 459.016 143.682 C 459.208 151.258 471.112 147.789 469.945 154.775 C 468.966 154.977 469.754 158.715 469.482 160.332 C 469.482 160.332 471.412 161.459 471.798 162.184 C 481.963 161.886 475.936 152.843 474.576 149.219 C 479.096 143.199 461.9 139.061 462.073 138.105 C 461.901 139.058 459.384 142.182 459.016 143.682 Z M 259.715 372.414 C 257.886 370.249 256.897 373.827 257.863 376.119 C 255.973 379.511 245.278 381.591 250.917 386.306 C 253.23 388.777 261.726 375.458 259.715 372.414 Z M 222.67 282.58 C 222.185 281.645 226.968 280.683 227.764 281.654 C 232.168 273.266 212.823 277.987 222.67 282.58 Z M 255.548 270.078 C 258.429 274.872 262.336 269.07 262.03 265.447 C 262.701 257.725 252.485 267.174 255.548 270.078 Z M 318.061 213.121 C 330.196 203.632 319.392 178.74 308.337 183.948 C 298.411 187.089 308.847 195.316 302.78 199.692 C 298.022 209.861 318.255 212.667 318.061 213.121 Z M 420.398 197.84 C 420.597 189.216 411.835 203.166 418.082 202.471 C 419.547 201.743 420.806 199.744 420.398 197.84 Z M 391.225 193.672 C 390.984 197.973 375.037 196.911 384.279 202.471 C 386.502 202.193 390.838 202.972 391.688 202.008 C 398.046 201.601 398.973 189.666 391.225 193.672 Z M 336.583 183.485 C 330.694 186.723 336.437 194.091 338.409 196.875 C 343.631 196.889 340.492 184.757 336.583 183.485 Z M 364.367 177.928 C 364.026 177.206 361.003 177.206 360.663 177.928 C 354.774 179.825 346.285 181.149 349.086 190.431 C 353.755 197.137 361.806 184.752 365.735 193.163 C 365.856 193.071 367.894 193.638 367.609 192.746 C 372.091 188.549 376.905 175.974 364.367 177.928 Z M 443.551 163.573 C 432.353 170.34 448.918 170.054 449.571 175.613 C 450.582 175.513 453.185 175.948 452.812 175.15 C 458.951 169.023 452.269 158.203 443.551 163.573 Z M 424.565 158.943 C 419.624 151.094 407.925 163.981 419.009 165.426 C 419.009 165.426 422.713 165.889 424.565 165.889 C 425.663 168.052 430.177 170.805 431.974 169.593 C 441.232 164.318 431.965 156.473 424.565 158.943 Z M 479.207 170.056 C 480.356 170.601 483.426 170.571 484.3 169.593 C 497.656 162.546 470.303 159.835 479.207 170.056 Z M 396.318 163.573 C 396.984 163.599 397.891 160.659 396.318 160.332 C 390.42 160.421 386.873 158.072 384.742 152.923 C 384.778 152.165 380.975 151.249 380.574 152.923 C 378.414 152.923 376.253 152.923 374.092 152.923 C 372.842 151.959 371.14 151.516 371.776 154.312 C 370.749 160.41 385.279 170.883 387.52 168.204 C 389.237 169.525 396.008 166.586 396.318 163.573 Z M 454.664 121.435 C 453.695 121.846 439.213 124.751 439.846 123.287 C 438.159 118.304 458.832 116.274 454.664 121.435 Z M 600.067 440.948 C 590.792 436.094 588.217 420.147 591.732 418.721 C 593.151 419.788 597.962 417.374 598.677 415.016 C 599.979 415.677 599.978 411.83 598.677 411.775 C 590.308 410.077 595.681 400.495 594.973 392.326 C 592.288 387.252 590.918 378.428 591.732 373.804 C 594.702 363.127 576.359 369.979 580.618 362.227 C 584.906 353.521 569.387 356.631 571.82 346.483 C 571.82 345.302 571.82 342.352 571.82 340.463 C 577.714 338.949 580.896 334.72 582.007 328.424 C 582.641 322.882 582.505 317.661 580.618 312.216 C 576.049 306.688 583.571 303.092 576.451 298.788 C 577.229 295.963 583.361 294.949 581.544 288.137 C 582.625 288.036 583.705 286.167 584.786 285.359 C 592.845 284.119 588.572 274.61 583.396 273.782 C 579.338 271.288 570.593 270.794 571.357 264.058 C 573.404 254.575 578.2 269.137 584.786 264.521 C 592.017 267.082 595.059 259.369 600.53 259.427 C 600.53 259.427 602.778 260.895 605.621 259.738 C 610.121 258.682 611.03 254.646 615.811 253.871 C 618.939 251.443 620.498 247.444 621.368 242.757 C 623.605 236.818 617.97 235.556 614.885 233.496 C 615.91 229.656 625.246 234.008 624.609 227.013 C 626.211 227.013 625.481 223.685 625.535 222.382 C 625.532 221.105 625.994 220.248 626.924 220.067 C 635.634 221.543 637.049 230.318 640.353 237.2 C 637.023 243.905 639.159 253.637 644.521 244.146 C 646.89 242.718 647.394 235.262 646.836 233.959 C 651.905 233.288 653.261 241.116 653.319 247.388 C 660.239 250.442 656.512 256.429 653.319 260.353 C 653.93 267.076 655.322 270.293 652.856 277.487 C 659.802 282.536 650.828 287.393 647.299 281.191 C 642.643 279.54 640.656 273.891 634.333 273.319 C 629.911 272.147 620.251 269.674 617.2 273.782 C 609.085 274.966 612.514 281.155 615.348 285.822 C 621.879 285.577 624.738 295.274 616.274 294.157 C 614.975 293.774 613.265 293.624 612.106 294.157 C 604.292 298.583 616.174 299.362 616.737 302.955 C 613.928 306.622 616.264 312.267 616.737 315.921 C 621.897 318.627 615.167 326.588 621.831 327.497 C 627.706 327.2 629.553 322.871 632.944 320.088 C 633.529 319.13 634.008 318.065 633.87 316.384 C 634.46 313.344 636.599 312.015 634.796 308.975 C 634.796 308.383 634.796 306.075 634.796 304.807 C 645.13 299.256 629.973 297.991 632.481 292.305 C 633.356 291.893 635.984 291.578 637.575 292.305 C 640.862 295.537 644.71 289.79 649.614 290.915 C 654.587 287.97 656.909 294.512 658.876 297.398 C 661.562 300.577 662.997 305.009 664.432 309.438 C 665.72 313.712 669.244 318.033 665.821 321.941 C 664.842 322.143 665.63 325.881 665.358 327.497 C 665.021 335.233 671.753 330.458 674.62 329.813 C 675.337 330.592 675.046 334.141 675.083 336.296 C 673.802 336.929 669.91 341.979 671.841 344.168 C 672.478 344.129 673.606 349.008 672.767 350.65 C 666.483 349.318 655.597 355.723 649.151 353.429 C 639.017 354.816 641.917 368.375 651.003 366.858 C 652.77 360.044 669.582 361.274 670.452 369.173 C 676.004 376.834 666.094 387.803 669.989 393.252 C 669.989 393.513 669.989 395.536 669.989 396.494 C 664.881 400.512 651.42 392.991 657.949 405.292 C 657.949 406.835 657.949 408.379 657.949 409.922 C 657.234 418.085 648.039 418.103 649.151 408.07 C 649.221 407.363 644.695 407.363 644.058 408.07 C 646.46 412.971 644.582 422.093 638.964 420.573 C 634.354 416.628 630.627 429.454 626.461 421.499 C 626.388 420.08 625.428 417.523 623.683 419.184 C 611.395 421.35 624.797 424.798 621.831 428.445 C 617.945 431.658 616.957 437.773 610.717 438.632 C 610.401 438.908 604.485 439.268 602.657 440.146 C 601.772 440.837 600.875 441.091 600.067 440.948 Z M 609.328 429.834 C 603.984 426.479 616.72 419.863 607.476 418.721 C 606.591 418.166 604.561 417.148 604.234 418.721 C 603.411 419.458 602.033 421.253 603.308 422.425 C 603.463 422.528 603.165 423.932 602.382 423.814 C 601.456 422.888 600.53 421.962 599.604 421.036 C 599.101 419.72 597.813 420.422 596.825 421.036 C 595.848 420.933 596.623 424.336 596.362 426.13 C 596.513 431.998 603.021 431.974 607.013 434.465 C 610.619 435.761 611.596 431.392 609.328 429.834 Z M 610.717 404.366 C 614.217 405.594 616.395 399.908 615.348 397.883 C 613.367 393.821 609.652 391.847 604.697 390.937 C 602.165 382.505 600.232 390.903 602.382 395.104 C 607.554 397.712 605.529 402.545 610.717 404.366 Z M 620.904 370.562 C 624.121 365.674 634.893 364.67 626.461 357.133 C 625.319 356.96 624.576 356.775 623.22 357.133 C 612.964 352.559 608.823 364.722 607.939 369.173 C 602.103 378.652 612.447 381.252 614.422 389.085 C 628.485 390.333 617.828 377.772 620.904 370.562 Z M 625.998 339.537 C 625.817 334.052 633.98 331.778 634.333 332.128 C 634.686 332.055 636.447 332.746 637.112 331.202 C 637.954 328.438 630.482 326.596 628.313 329.813 C 625.813 330.09 622.256 329.312 620.441 330.276 C 616.237 330.451 609.936 329.34 609.328 332.591 C 608.705 334.295 609.328 335.832 609.328 335.832 C 607.183 340.794 612.364 344.703 615.348 347.409 L 616.737 346.946 C 618.736 343.389 623.657 342.752 625.998 339.537 Z M 643.131 260.816 C 644.132 260.264 640.709 255.057 638.501 254.797 C 638.023 253.319 634.849 254.075 635.722 256.649 L 640.816 261.28 C 641.666 261.321 643.632 261.418 643.131 260.816 Z M 446.792 355.744 C 447.217 355.744 460.684 356.207 460.684 356.207 C 468.329 354.24 465.889 361.793 460.684 361.301 C 460.735 361.301 459.034 361.301 458.369 361.301 C 452.117 361.885 447.002 361.06 441.235 362.69 C 440.411 363.352 439.77 363.619 438.92 363.153 C 433.565 359.098 441.846 355.691 446.792 355.744 Z M 446.792 397.42 C 446.096 395.774 443.165 397.723 442.162 396.031 C 441.64 395.677 443.191 391.499 441.235 391.863 C 437.398 389.478 440.753 382.415 444.477 382.139 C 446.714 378.819 452.107 378.655 455.59 376.582 C 455.832 375.975 457.915 375.976 458.832 376.582 C 461.836 376.779 457.53 382.352 460.684 380.75 C 461.276 380.75 463.584 380.75 464.852 380.75 C 471.811 381.928 472.682 386.106 471.798 390.474 C 472.129 390.44 472.783 393.177 471.798 393.715 C 472.117 401.134 467.106 402.695 462.024 404.712 C 459.066 405.672 447.651 402.518 446.792 397.42 Z M 468.556 389.548 C 469.026 378.929 459.183 386.933 463.926 393.252 C 462.332 401.103 453.574 395.699 452.812 392.326 C 446.375 395.884 453.587 402.074 457.906 402.976 C 466.008 403.72 471.122 397.304 468.556 389.548 Z M 486.153 390.011 L 487.079 389.548 C 490.154 390.223 492.959 392.141 494.025 394.178 L 493.098 395.567 C 490.831 393.769 486.656 392.933 486.153 390.011 Z"/>
  <use xlink:href="#ornament" transform="translate( 702.0)"/>
  <use xlink:href="#ornament" transform="translate( 866.7)"/>
  <use xlink:href="#ornament" transform="translate(1031.4)"/>
  <use xlink:href="#ornament" transform="translate(1196.1)"/>
  <use xlink:href="#ornament" transform="translate(1360.8)"/>
  <use xlink:href="#ornament" transform="translate(1525.5)"/>
  <use xlink:href="#ornament" transform="translate(1690.2)"/>
  <use xlink:href="#ornament" transform="translate(1854.9)"/>
  <text x="1042" y="796" style="fill: #cc0000; font-family: 'Ruslan Display'; font-size: 110px"></text>
</svg>