<?xml version="1.0" encoding="utf-8"?>
<svg width="200cm" height="100cm" viewBox="0 0 200 100" xmlns="http://www.w3.org/2000/svg" xmlns:xlink="http://www.w3.org/1999/xlink">
  <path id="ornament" style="fill: #cc0000" d="M 10.256 40.009 L 9.864 40.009 L 9.864 40.793 L 9.08 40.793 L 9.08 41.185 L 8.689 41.185 L 8.689 40.401 L 8.297 40.401 L 8.297 40.793 L 7.905 40.793 L 7.905 41.185 L 7.513 41.185 L 7.513 41.577 L 6.729 41.577 L 6.729 40.401 L 7.121 40.401 L 7.121 40.009 L 7.513 40.009 L 7.513 39.618 L 5.554 39.618 L 5.554 40.009 L 5.946 40.009 L 5.946 40.401 L 6.338 40.401 L 6.338 41.577 L 5.554 41.577 L 5.554 41.185 L 5.162 41.185 L 5.162 40.793 L 4.77 40.793 L 4.77 40.401 L 4.378 40.401 L 4.378 41.185 L 3.986 41.185 L 3.986 40.793 L 3.203 40.793 L 3.203 40.009 L 2.811 40.009 L 2.811 38.05 L 2.419 38.05 L 2.419 40.009 L 2.027 40.009 L 2.027 40.793 L 1.243 40.793 L 1.243 41.185 L 0.852 41.185 L 0.852 40.401 L 0.46 40.401 L 0.46 40.793 L 0.068 40.793 L 0.068 41.185 L -0.324 41.185 L -0.324 41.577 L -1.108 41.577 L -1.108 40.401 L -0.716 40.401 L -0.716 40.009 L -0.324 40.009 L -0.324 39.618 L -1.5 39.618 L -1.5 39.226 L -1.108 39.226 L -1.108 38.834 L -0.716 38.834 L -0.716 38.442 L -0.324 38.442 L -0.324 38.05 L 0.46 38.05 L 0.46 37.659 L 2.027 37.659 L 2.027 38.05 L 1.635 38.05 L 1.635 38.442 L 1.243 38.442 L 1.243 38.834 L 0.852 38.834 L 0.852 39.226 L 0.46 39.226 L 0.46 39.618 L 0.852 39.618 L 0.852 39.226 L 1.243 39.226 L 1.243 38.834 L 1.635 38.834 L 1.635 38.442 L 2.027 38.442 L 2.027 38.05 L 2.419 38.05 L 2.419 37.659 L 2.027 37.659 L 2.027 37.267 L 2.419 37.267 L 2.419 36.875 L 2.027 36.875 L 2.027 36.483 L 1.635 36.483 L 1.635 36.091 L 1.243 36.091 L 1.243 35.7 L 0.852 35.7 L 0.852 35.308 L 0.46 35.308 L 0.46 35.7 L 0.852 35.7 L 0.852 36.091 L 1.243 36.091 L 1.243 36.483 L 1.635 36.483 L 1.635 36.875 L 2.027 36.875 L 2.027 37.267 L 0.46 37.267 L 0.46 36.875 L -0.324 36.875 L -0.324 36.483 L -0.716 36.483 L -0.716 36.091 L -1.108 36.091 L -1.108 35.7 L -1.5 35.7 L -1.5 35.308 L -0.324 35.308 L -0.324 34.916 L -0.716 34.916 L -0.716 34.524 L -1.108 34.524 L -1.108 33.349 L -0.324 33.349 L -0.324 33.741 L 0.068 33.741 L 0.068 34.133 L 0.46 34.133 L 0.46 34.524 L 0.852 34.524 L 0.852 33.741 L 1.243 33.741 L 1.243 34.133 L 2.027 34.133 L 2.027 34.916 L 2.419 34.916 L 2.419 36.875 L 2.811 36.875 L 2.811 34.916 L 3.203 34.916 L 3.203 34.133 L 3.986 34.133 L 3.986 33.741 L 4.378 33.741 L 4.378 34.524 L 4.77 34.524 L 4.77 34.133 L 5.162 34.133 L 5.162 33.741 L 5.554 33.741 L 5.554 33.349 L 6.338 33.349 L 6.338 34.524 L 5.946 34.524 L 5.946 34.916 L 5.554 34.916 L 5.554 35.308 L 7.513 35.308 L 7.513 34.916 L 7.121 34.916 L 7.121 34.524 L 6.729 34.524 L 6.729 33.349 L 7.513 33.349 L 7.513 33.741 L 7.905 33.741 L 7.905 34.132 L 8.297 34.132 L 8.297 34.524 L 8.689 34.524 L 8.689 33.741 L 9.08 33.741 L 9.08 34.132 L 9.864 34.132 L 9.864 34.916 L 10.256 34.916 L 10.256 36.875 L 10.648 36.875 L 10.648 34.916 L 11.04 34.916 L 11.04 34.132 L 11.824 34.132 L 11.824 33.741 L 12.215 33.741 L 12.215 34.524 L 12.607 34.524 L 12.607 34.132 L 12.999 34.132 L 12.999 33.741 L 13.391 33.741 L 13.391 33.349 L 14.175 33.349 L 14.175 34.524 L 13.783 34.524 L 13.783 34.916 L 13.391 34.916 L 13.391 35.308 L 14.567 35.308 L 14.567 35.7 L 14.175 35.7 L 14.175 36.091 L 13.783 36.091 L 13.783 36.483 L 13.391 36.483 L 13.391 36.875 L 12.607 36.875 L 12.607 37.267 L 11.04 37.267 L 11.04 36.875 L 11.432 36.875 L 11.432 36.483 L 11.824 36.483 L 11.824 36.091 L 12.215 36.091 L 12.215 35.7 L 12.607 35.7 L 12.607 35.308 L 12.215 35.308 L 12.215 35.7 L 11.824 35.7 L 11.824 36.091 L 11.432 36.091 L 11.432 36.483 L 11.04 36.483 L 11.04 36.875 L 10.648 36.875 L 10.648 37.267 L 11.04 37.267 L 11.04 37.659 L 10.648 37.659 L 10.648 38.05 L 11.04 38.05 L 11.04 38.442 L 11.432 38.442 L 11.432 38.834 L 11.824 38.834 L 11.824 39.226 L 12.215 39.226 L 12.215 39.618 L 12.607 39.618 L 12.607 39.226 L 12.215 39.226 L 12.215 38.834 L 11.824 38.834 L 11.824 38.442 L 11.432 38.442 L 11.432 38.05 L 11.04 38.05 L 11.04 37.659 L 12.607 37.659 L 12.607 38.05 L 13.391 38.05 L 13.391 38.442 L 13.783 38.442 L 13.783 38.834 L 14.175 38.834 L 14.175 39.226 L 14.567 39.226 L 14.567 39.618 L 13.391 39.618 L 13.391 40.009 L 13.783 40.009 L 13.783 40.401 L 14.175 40.401 L 14.175 41.577 L 13.391 41.577 L 13.391 41.185 L 12.999 41.185 L 12.999 40.793 L 12.607 40.793 L 12.607 40.401 L 12.215 40.401 L 12.215 41.185 L 11.824 41.185 L 11.824 40.793 L 11.04 40.793 L 11.04 40.009 L 10.648 40.009 L 10.648 38.05 L 10.256 38.05 L 10.256 40.009 Z M 6.729 39.226 L 6.729 38.834 L 7.121 38.834 L 7.121 38.442 L 7.513 38.442 L 7.513 38.05 L 8.297 38.05 L 8.297 37.659 L 9.864 37.659 L 9.864 38.05 L 9.472 38.05 L 9.472 38.442 L 9.08 38.442 L 9.08 38.834 L 8.689 38.834 L 8.689 39.226 L 8.297 39.226 L 8.297 39.618 L 8.689 39.618 L 8.689 39.226 L 9.08 39.226 L 9.08 38.834 L 9.472 38.834 L 9.472 38.442 L 9.864 38.442 L 9.864 38.05 L 10.256 38.05 L 10.256 37.659 L 9.864 37.659 L 9.864 37.267 L 10.256 37.267 L 10.256 36.875 L 9.864 36.875 L 9.864 36.483 L 9.472 36.483 L 9.472 36.091 L 9.08 36.091 L 9.08 35.7 L 8.689 35.7 L 8.689 35.308 L 8.297 35.308 L 8.297 35.7 L 8.689 35.7 L 8.689 36.091 L 9.08 36.091 L 9.08 36.483 L 9.472 36.483 L 9.472 36.875 L 9.864 36.875 L 9.864 37.267 L 8.297 37.267 L 8.297 36.875 L 7.513 36.875 L 7.513 36.483 L 7.121 36.483 L 7.121 36.091 L 6.729 36.091 L 6.729 35.7 L 6.338 35.7 L 6.338 36.091 L 5.946 36.091 L 5.946 36.483 L 5.554 36.483 L 5.554 36.875 L 4.77 36.875 L 4.77 37.267 L 3.203 37.267 L 3.203 36.875 L 3.595 36.875 L 3.595 36.483 L 3.986 36.483 L 3.986 36.091 L 4.378 36.091 L 4.378 35.7 L 4.77 35.7 L 4.77 35.308 L 4.378 35.308 L 4.378 35.7 L 3.986 35.7 L 3.986 36.091 L 3.595 36.091 L 3.595 36.483 L 3.203 36.483 L 3.203 36.875 L 2.811 36.875 L 2.811 37.267 L 3.203 37.267 L 3.203 37.659 L 2.811 37.659 L 2.811 38.05 L 3.203 38.05 L 3.203 38.442 L 3.595 38.442 L 3.595 38.834 L 3.986 38.834 L 3.986 39.226 L 4.378 39.226 L 4.378 39.618 L 4.77 39.618 L 4.77 39.226 L 4.378 39.226 L 4.378 38.834 L 3.986 38.834 L 3.986 38.442 L 3.595 38.442 L 3.595 38.05 L 3.203 38.05 L 3.203 37.659 L 4.77 37.659 L 4.77 38.05 L 5.554 38.05 L 5.554 38.442 L 5.946 38.442 L 5.946 38.834 L 6.338 38.834 L 6.338 39.226 L 6.729 39.226 Z M 10.648 40.401 L 10.648 40.793 L 10.256 40.793 L 10.256 40.401 L 10.648 40.401 Z M 10.256 34.524 L 10.256 34.132 L 10.648 34.132 L 10.648 34.524 L 10.256 34.524 Z M 2.811 40.401 L 2.811 40.793 L 2.419 40.793 L 2.419 40.401 L 2.811 40.401 Z M 2.419 34.524 L 2.419 34.133 L 2.811 34.133 L 2.811 34.524 L 2.419 34.524 Z M 10.256 65.084 L 9.864 65.084 L 9.864 65.868 L 9.08 65.868 L 9.08 66.259 L 8.689 66.259 L 8.689 65.476 L 8.297 65.476 L 8.297 65.868 L 7.905 65.868 L 7.905 66.259 L 7.513 66.259 L 7.513 66.651 L 6.729 66.651 L 6.729 65.476 L 7.121 65.476 L 7.121 65.084 L 7.513 65.084 L 7.513 64.692 L 5.554 64.692 L 5.554 65.084 L 5.946 65.084 L 5.946 65.476 L 6.337 65.476 L 6.337 66.651 L 5.554 66.651 L 5.554 66.26 L 5.162 66.26 L 5.162 65.868 L 4.77 65.868 L 4.77 65.476 L 4.378 65.476 L 4.378 66.26 L 3.986 66.26 L 3.986 65.868 L 3.203 65.868 L 3.203 65.084 L 2.811 65.084 L 2.811 63.125 L 2.419 63.125 L 2.419 65.084 L 2.027 65.084 L 2.027 65.868 L 1.243 65.868 L 1.243 66.26 L 0.852 66.26 L 0.852 65.476 L 0.46 65.476 L 0.46 65.868 L 0.068 65.868 L 0.068 66.26 L -0.324 66.26 L -0.324 66.651 L -1.108 66.651 L -1.108 65.476 L -0.716 65.476 L -0.716 65.084 L -0.324 65.084 L -0.324 64.692 L -1.5 64.692 L -1.5 64.301 L -1.108 64.301 L -1.108 63.909 L -0.716 63.909 L -0.716 63.517 L -0.324 63.517 L -0.324 63.125 L 0.46 63.125 L 0.46 62.733 L 2.027 62.733 L 2.027 63.125 L 1.635 63.125 L 1.635 63.517 L 1.243 63.517 L 1.243 63.909 L 0.852 63.909 L 0.852 64.301 L 0.46 64.301 L 0.46 64.692 L 0.852 64.692 L 0.852 64.301 L 1.243 64.301 L 1.243 63.909 L 1.635 63.909 L 1.635 63.517 L 2.027 63.517 L 2.027 63.125 L 2.419 63.125 L 2.419 62.733 L 2.027 62.733 L 2.027 62.342 L 2.419 62.342 L 2.419 61.95 L 2.027 61.95 L 2.027 61.558 L 1.635 61.558 L 1.635 61.166 L 1.243 61.166 L 1.243 60.774 L 0.852 60.774 L 0.852 60.383 L 0.46 60.383 L 0.46 60.774 L 0.852 60.774 L 0.852 61.166 L 1.243 61.166 L 1.243 61.558 L 1.635 61.558 L 1.635 61.95 L 2.027 61.95 L 2.027 62.342 L 0.46 62.342 L 0.46 61.95 L -0.324 61.95 L -0.324 61.558 L -0.716 61.558 L -0.716 61.166 L -1.108 61.166 L -1.108 60.774 L -1.5 60.774 L -1.5 60.383 L -0.324 60.383 L -0.324 59.991 L -0.716 59.991 L -0.716 59.599 L -1.108 59.599 L -1.108 58.424 L -0.324 58.424 L -0.324 58.815 L 0.068 58.815 L 0.068 59.207 L 0.46 59.207 L 0.46 59.599 L 0.852 59.599 L 0.852 58.815 L 1.243 58.815 L 1.243 59.207 L 2.027 59.207 L 2.027 59.991 L 2.419 59.991 L 2.419 61.95 L 2.811 61.95 L 2.811 59.991 L 3.203 59.991 L 3.203 59.207 L 3.986 59.207 L 3.986 58.815 L 4.378 58.815 L 4.378 59.599 L 4.77 59.599 L 4.77 59.207 L 5.162 59.207 L 5.162 58.815 L 5.554 58.815 L 5.554 58.424 L 6.337 58.424 L 6.337 59.599 L 5.946 59.599 L 5.946 59.991 L 5.554 59.991 L 5.554 60.383 L 7.513 60.383 L 7.513 59.991 L 7.121 59.991 L 7.121 59.599 L 6.729 59.599 L 6.729 58.424 L 7.513 58.424 L 7.513 58.815 L 7.905 58.815 L 7.905 59.207 L 8.297 59.207 L 8.297 59.599 L 8.689 59.599 L 8.689 58.815 L 9.08 58.815 L 9.08 59.207 L 9.864 59.207 L 9.864 59.991 L 10.256 59.991 L 10.256 61.95 L 10.648 61.95 L 10.648 59.991 L 11.04 59.991 L 11.04 59.207 L 11.823 59.207 L 11.823 58.815 L 12.215 58.815 L 12.215 59.599 L 12.607 59.599 L 12.607 59.207 L 12.999 59.207 L 12.999 58.815 L 13.391 58.815 L 13.391 58.424 L 14.175 58.424 L 14.175 59.599 L 13.783 59.599 L 13.783 59.991 L 13.391 59.991 L 13.391 60.383 L 14.566 60.383 L 14.566 60.774 L 14.175 60.774 L 14.175 61.166 L 13.783 61.166 L 13.783 61.558 L 13.391 61.558 L 13.391 61.95 L 12.607 61.95 L 12.607 62.342 L 11.04 62.342 L 11.04 61.95 L 11.432 61.95 L 11.432 61.558 L 11.823 61.558 L 11.823 61.166 L 12.215 61.166 L 12.215 60.774 L 12.607 60.774 L 12.607 60.383 L 12.215 60.383 L 12.215 60.774 L 11.823 60.774 L 11.823 61.166 L 11.432 61.166 L 11.432 61.558 L 11.04 61.558 L 11.04 61.95 L 10.648 61.95 L 10.648 62.342 L 11.04 62.342 L 11.04 62.733 L 10.648 62.733 L 10.648 63.125 L 11.04 63.125 L 11.04 63.517 L 11.432 63.517 L 11.432 63.909 L 11.823 63.909 L 11.823 64.3 L 12.215 64.3 L 12.215 64.692 L 12.607 64.692 L 12.607 64.3 L 12.215 64.3 L 12.215 63.909 L 11.823 63.909 L 11.823 63.517 L 11.432 63.517 L 11.432 63.125 L 11.04 63.125 L 11.04 62.733 L 12.607 62.733 L 12.607 63.125 L 13.391 63.125 L 13.391 63.517 L 13.783 63.517 L 13.783 63.909 L 14.175 63.909 L 14.175 64.3 L 14.566 64.3 L 14.566 64.692 L 13.391 64.692 L 13.391 65.084 L 13.783 65.084 L 13.783 65.476 L 14.175 65.476 L 14.175 66.651 L 13.391 66.651 L 13.391 66.259 L 12.999 66.259 L 12.999 65.868 L 12.607 65.868 L 12.607 65.476 L 12.215 65.476 L 12.215 66.259 L 11.823 66.259 L 11.823 65.868 L 11.04 65.868 L 11.04 65.084 L 10.648 65.084 L 10.648 63.125 L 10.256 63.125 L 10.256 65.084 Z M 6.338 64.3 L 6.729 64.3 L 6.729 63.909 L 7.121 63.909 L 7.121 63.517 L 7.513 63.517 L 7.513 63.125 L 8.297 63.125 L 8.297 62.733 L 9.864 62.733 L 9.864 63.125 L 9.472 63.125 L 9.472 63.517 L 9.08 63.517 L 9.08 63.909 L 8.689 63.909 L 8.689 64.3 L 8.297 64.3 L 8.297 64.692 L 8.689 64.692 L 8.689 64.3 L 9.08 64.3 L 9.08 63.909 L 9.472 63.909 L 9.472 63.517 L 9.864 63.517 L 9.864 63.125 L 10.256 63.125 L 10.256 62.733 L 9.864 62.733 L 9.864 62.342 L 10.256 62.342 L 10.256 61.95 L 9.864 61.95 L 9.864 61.558 L 9.472 61.558 L 9.472 61.166 L 9.08 61.166 L 9.08 60.774 L 8.689 60.774 L 8.689 60.383 L 8.297 60.383 L 8.297 60.774 L 8.689 60.774 L 8.689 61.166 L 9.08 61.166 L 9.08 61.558 L 9.472 61.558 L 9.472 61.95 L 9.864 61.95 L 9.864 62.342 L 8.297 62.342 L 8.297 61.95 L 7.513 61.95 L 7.513 61.558 L 7.121 61.558 L 7.121 61.166 L 6.729 61.166 L 6.729 60.774 L 6.337 60.774 L 6.337 61.166 L 5.946 61.166 L 5.946 61.558 L 5.554 61.558 L 5.554 61.95 L 4.77 61.95 L 4.77 62.342 L 3.203 62.342 L 3.203 61.95 L 3.594 61.95 L 3.594 61.558 L 3.986 61.558 L 3.986 61.166 L 4.378 61.166 L 4.378 60.774 L 4.77 60.774 L 4.77 60.383 L 4.378 60.383 L 4.378 60.774 L 3.986 60.774 L 3.986 61.166 L 3.594 61.166 L 3.594 61.558 L 3.203 61.558 L 3.203 61.95 L 2.811 61.95 L 2.811 62.342 L 3.203 62.342 L 3.203 62.733 L 2.811 62.733 L 2.811 63.125 L 3.203 63.125 L 3.203 63.517 L 3.594 63.517 L 3.594 63.909 L 3.986 63.909 L 3.986 64.301 L 4.378 64.301 L 4.378 64.692 L 4.77 64.692 L 4.77 64.301 L 4.378 64.301 L 4.378 63.909 L 3.986 63.909 L 3.986 63.517 L 3.594 63.517 L 3.594 63.125 L 3.203 63.125 L 3.203 62.733 L 4.77 62.733 L 4.77 63.125 L 5.554 63.125 L 5.554 63.517 L 5.946 63.517 L 5.946 63.909 L 6.337 63.909 L 6.337 64.301 L 6.338 64.301 L 6.338 64.3 Z M 10.648 65.476 L 10.648 65.868 L 10.256 65.868 L 10.256 65.476 L 10.648 65.476 Z M 10.256 59.599 L 10.256 59.207 L 10.648 59.207 L 10.648 59.599 L 10.256 59.599 Z M 2.811 65.476 L 2.811 65.868 L 2.419 65.868 L 2.419 65.476 L 2.811 65.476 Z M 2.419 59.599 L 2.419 59.207 L 2.811 59.207 L 2.811 59.599 L 2.419 59.599 Z M 7.121 51.763 L 7.513 51.763 L 7.513 52.155 L 7.905 52.155 L 7.905 52.939 L 7.513 52.939 L 7.513 53.33 L 7.121 53.33 L 7.121 52.939 L 6.729 52.939 L 6.729 52.155 L 6.337 52.155 L 6.337 52.939 L 5.946 52.939 L 5.946 53.33 L 5.554 53.33 L 5.554 52.939 L 5.162 52.939 L 5.162 52.155 L 5.554 52.155 L 5.554 51.763 L 5.946 51.763 L 5.946 50.98 L 7.121 50.98 L 7.121 51.763 Z M 6.729 53.722 L 7.121 53.722 L 7.121 54.114 L 7.513 54.114 L 7.513 54.506 L 7.905 54.506 L 7.905 54.898 L 7.121 54.898 L 7.121 54.506 L 6.729 54.506 L 6.729 55.289 L 7.513 55.289 L 7.513 56.073 L 7.905 56.073 L 7.905 55.289 L 8.297 55.289 L 8.297 55.681 L 8.689 55.681 L 8.689 56.465 L 8.297 56.465 L 8.297 56.857 L 7.513 56.857 L 7.513 56.465 L 7.121 56.465 L 7.121 55.681 L 6.729 55.681 L 6.729 56.857 L 7.121 56.857 L 7.121 57.248 L 6.729 57.248 L 6.729 57.64 L 6.337 57.64 L 6.337 57.248 L 5.946 57.248 L 5.946 56.857 L 6.337 56.857 L 6.337 55.681 L 5.946 55.681 L 5.946 56.465 L 5.554 56.465 L 5.554 56.857 L 4.77 56.857 L 4.77 56.465 L 4.378 56.465 L 4.378 55.681 L 4.77 55.681 L 4.77 55.289 L 5.162 55.289 L 5.162 56.073 L 5.554 56.073 L 5.554 55.289 L 6.337 55.289 L 6.337 54.506 L 5.946 54.506 L 5.946 54.898 L 5.162 54.898 L 5.162 54.506 L 5.554 54.506 L 5.554 54.114 L 5.946 54.114 L 5.946 53.722 L 6.337 53.722 L 6.337 52.939 L 6.729 52.939 L 6.729 53.722 Z M 7.121 49.021 L 5.946 49.021 L 5.946 48.237 L 5.554 48.237 L 5.554 47.845 L 5.162 47.845 L 5.162 47.062 L 5.554 47.062 L 5.554 46.67 L 5.946 46.67 L 5.946 47.062 L 6.337 47.062 L 6.337 47.845 L 6.729 47.845 L 6.729 47.062 L 7.121 47.062 L 7.121 46.67 L 7.513 46.67 L 7.513 47.062 L 7.905 47.062 L 7.905 47.845 L 7.513 47.845 L 7.513 48.237 L 7.121 48.237 L 7.121 49.021 Z M 6.729 47.062 L 6.337 47.062 L 6.337 46.278 L 5.946 46.278 L 5.946 45.886 L 5.554 45.886 L 5.554 45.495 L 5.162 45.495 L 5.162 45.103 L 5.946 45.103 L 5.946 45.495 L 6.337 45.495 L 6.337 44.711 L 5.554 44.711 L 5.554 43.927 L 5.162 43.927 L 5.162 44.711 L 4.77 44.711 L 4.77 44.319 L 4.378 44.319 L 4.378 43.536 L 4.77 43.536 L 4.77 43.144 L 5.554 43.144 L 5.554 43.536 L 5.946 43.536 L 5.946 44.319 L 6.337 44.319 L 6.337 43.144 L 5.946 43.144 L 5.946 42.752 L 6.337 42.752 L 6.337 42.36 L 6.729 42.36 L 6.729 42.752 L 7.121 42.752 L 7.121 43.144 L 6.729 43.144 L 6.729 44.319 L 7.121 44.319 L 7.121 43.536 L 7.513 43.536 L 7.513 43.144 L 8.297 43.144 L 8.297 43.536 L 8.689 43.536 L 8.689 44.319 L 8.297 44.319 L 8.297 44.711 L 7.905 44.711 L 7.905 43.927 L 7.513 43.927 L 7.513 44.711 L 6.729 44.711 L 6.729 45.495 L 7.121 45.495 L 7.121 45.103 L 7.905 45.103 L 7.905 45.495 L 7.513 45.495 L 7.513 45.886 L 7.121 45.886 L 7.121 46.278 L 6.729 46.278 L 6.729 47.062 Z M 4.77 50.588 L 4.77 50.98 L 4.378 50.98 L 4.378 51.371 L 3.594 51.371 L 3.594 50.98 L 3.203 50.98 L 3.203 50.588 L 3.594 50.588 L 3.594 50.196 L 4.378 50.196 L 4.378 49.804 L 3.594 49.804 L 3.594 49.412 L 3.203 49.412 L 3.203 49.021 L 3.594 49.021 L 3.594 48.629 L 4.378 48.629 L 4.378 49.021 L 4.77 49.021 L 4.77 49.412 L 5.554 49.412 L 5.554 50.588 L 4.77 50.588 Z M 2.811 50.196 L 2.811 50.588 L 2.419 50.588 L 2.419 50.98 L 2.027 50.98 L 2.027 51.371 L 1.635 51.371 L 1.635 50.588 L 2.027 50.588 L 2.027 50.196 L 1.243 50.196 L 1.243 50.98 L 0.46 50.98 L 0.46 51.371 L 1.243 51.371 L 1.243 51.763 L 0.852 51.763 L 0.852 52.155 L 0.068 52.155 L 0.068 51.763 L -0.324 51.763 L -0.324 50.98 L 0.068 50.98 L 0.068 50.588 L 0.852 50.588 L 0.852 50.196 L -0.324 50.196 L -0.324 50.588 L -0.716 50.588 L -0.716 50.196 L -1.108 50.196 L -1.108 49.804 L -0.716 49.804 L -0.716 49.412 L -0.324 49.412 L -0.324 49.804 L 0.852 49.804 L 0.852 49.412 L 0.068 49.412 L 0.068 49.021 L -0.324 49.021 L -0.324 48.237 L 0.068 48.237 L 0.068 47.845 L 0.852 47.845 L 0.852 48.237 L 1.243 48.237 L 1.243 48.629 L 0.46 48.629 L 0.46 49.021 L 1.243 49.021 L 1.243 49.804 L 2.027 49.804 L 2.027 49.412 L 1.635 49.412 L 1.635 48.629 L 2.027 48.629 L 2.027 49.021 L 2.419 49.021 L 2.419 49.412 L 2.811 49.412 L 2.811 49.804 L 3.594 49.804 L 3.594 50.196 L 2.811 50.196 Z M 7.513 50.588 L 7.513 49.412 L 8.297 49.412 L 8.297 49.021 L 8.689 49.021 L 8.689 48.629 L 9.472 48.629 L 9.472 49.021 L 9.864 49.021 L 9.864 49.412 L 9.472 49.412 L 9.472 49.804 L 8.689 49.804 L 8.689 50.196 L 9.472 50.196 L 9.472 50.588 L 9.864 50.588 L 9.864 50.98 L 9.472 50.98 L 9.472 51.371 L 8.689 51.371 L 8.689 50.98 L 8.297 50.98 L 8.297 50.588 L 7.513 50.588 Z M 9.472 50.196 L 9.472 49.804 L 10.256 49.804 L 10.256 49.412 L 10.648 49.412 L 10.648 49.021 L 11.04 49.021 L 11.04 48.629 L 11.432 48.629 L 11.432 49.412 L 11.04 49.412 L 11.04 49.804 L 11.823 49.804 L 11.823 49.021 L 12.607 49.021 L 12.607 48.629 L 11.823 48.629 L 11.823 48.237 L 12.215 48.237 L 12.215 47.845 L 12.999 47.845 L 12.999 48.237 L 13.391 48.237 L 13.391 49.021 L 12.999 49.021 L 12.999 49.412 L 12.215 49.412 L 12.215 49.804 L 13.391 49.804 L 13.391 49.412 L 13.783 49.412 L 13.783 49.804 L 14.175 49.804 L 14.175 50.196 L 13.783 50.196 L 13.783 50.588 L 13.391 50.588 L 13.391 50.196 L 12.215 50.196 L 12.215 50.588 L 12.999 50.588 L 12.999 50.98 L 13.391 50.98 L 13.391 51.763 L 12.999 51.763 L 12.999 52.155 L 12.215 52.155 L 12.215 51.763 L 11.823 51.763 L 11.823 51.371 L 12.607 51.371 L 12.607 50.98 L 11.823 50.98 L 11.823 50.196 L 11.04 50.196 L 11.04 50.588 L 11.432 50.588 L 11.432 51.371 L 11.04 51.371 L 11.04 50.98 L 10.648 50.98 L 10.648 50.588 L 10.256 50.588 L 10.256 50.196 L 9.472 50.196 Z M 7.121 50.98 L 7.121 50.588 L 7.513 50.588 L 7.513 50.98 L 7.121 50.98 Z M 5.554 50.98 L 5.554 50.588 L 5.946 50.588 L 5.946 50.98 L 5.554 50.98 Z M 7.121 49.412 L 7.121 50.588 L 5.946 50.588 L 5.946 49.412 L 7.121 49.412 Z M 6.729 49.804 L 6.337 49.804 L 6.337 50.196 L 6.729 50.196 L 6.729 49.804 Z M 7.513 49.021 L 7.513 49.412 L 7.121 49.412 L 7.121 49.021 L 7.513 49.021 Z M 5.946 49.021 L 5.946 49.412 L 5.554 49.412 L 5.554 49.021 L 5.946 49.021 Z M 3.594 47.062 L 3.986 47.062 L 3.986 47.454 L 3.594 47.454 L 3.594 47.062 Z M 3.594 44.711 L 3.594 45.103 L 3.986 45.103 L 3.986 46.67 L 3.594 46.67 L 3.594 47.062 L 3.203 47.062 L 3.203 47.454 L 1.635 47.454 L 1.635 47.062 L 1.243 47.062 L 1.243 46.67 L 0.852 46.67 L 0.852 45.886 L 0.46 45.886 L 0.46 45.495 L 0.068 45.495 L 0.068 45.103 L -0.324 45.103 L -0.324 46.278 L -0.716 46.278 L -0.716 45.886 L -1.108 45.886 L -1.108 45.495 L -1.5 45.495 L -1.5 45.103 L -0.716 45.103 L -0.716 44.711 L -0.324 44.711 L -0.324 43.927 L 0.068 43.927 L 0.068 44.319 L 0.46 44.319 L 0.46 44.711 L 0.852 44.711 L 0.852 45.103 L 1.243 45.103 L 1.243 45.495 L 1.635 45.495 L 1.635 45.886 L 2.027 45.886 L 2.027 46.278 L 2.419 46.278 L 2.419 46.67 L 2.811 46.67 L 2.811 46.278 L 3.203 46.278 L 3.203 45.886 L 2.811 45.886 L 2.811 45.495 L 2.419 45.495 L 2.419 45.103 L 2.027 45.103 L 2.027 44.711 L 1.635 44.711 L 1.635 44.319 L 1.243 44.319 L 1.243 43.927 L 0.852 43.927 L 0.852 43.536 L 0.46 43.536 L 0.46 43.144 L 1.243 43.144 L 1.243 42.752 L 1.635 42.752 L 1.635 41.968 L 2.027 41.968 L 2.027 42.36 L 2.419 42.36 L 2.419 42.752 L 2.811 42.752 L 2.811 43.144 L 1.635 43.144 L 1.635 43.536 L 2.027 43.536 L 2.027 43.927 L 2.419 43.927 L 2.419 44.319 L 3.203 44.319 L 3.203 44.711 L 3.594 44.711 Z M 2.027 45.495 L 2.419 45.495 L 2.419 45.886 L 2.027 45.886 L 2.027 45.495 Z M 1.635 45.103 L 2.027 45.103 L 2.027 45.495 L 1.635 45.495 L 1.635 45.103 Z M 1.243 44.711 L 1.635 44.711 L 1.635 45.103 L 1.243 45.103 L 1.243 44.711 Z M 0.852 44.319 L 1.243 44.319 L 1.243 44.711 L 0.852 44.711 L 0.852 44.319 Z M 0.46 43.927 L 0.852 43.927 L 0.852 44.319 L 0.46 44.319 L 0.46 43.927 Z M 0.068 43.536 L 0.46 43.536 L 0.46 43.927 L 0.068 43.927 L 0.068 43.536 Z M 2.419 41.968 L 2.811 41.968 L 2.811 42.36 L 2.419 42.36 L 2.419 41.968 Z M -1.5 45.886 L -1.108 45.886 L -1.108 46.278 L -1.5 46.278 L -1.5 45.886 Z M -1.108 43.927 L -0.716 43.927 L -0.716 44.319 L -1.108 44.319 L -1.108 43.927 Z M -1.5 43.144 L -0.716 43.144 L -0.716 42.752 L -0.324 42.752 L -0.324 41.968 L 0.46 41.968 L 0.46 42.36 L 0.068 42.36 L 0.068 43.536 L -1.108 43.536 L -1.108 43.927 L -1.5 43.927 L -1.5 43.144 Z M -1.108 41.968 L -0.716 41.968 L -0.716 42.752 L -1.5 42.752 L -1.5 42.36 L -1.108 42.36 L -1.108 41.968 Z M 0.46 42.36 L 0.852 42.36 L 0.852 42.752 L 0.46 42.752 L 0.46 42.36 Z M 3.986 47.454 L 4.378 47.454 L 4.378 47.845 L 3.986 47.845 L 3.986 47.454 Z M 4.378 47.845 L 4.77 47.845 L 4.77 48.237 L 4.378 48.237 L 4.378 47.845 Z M 4.77 48.237 L 5.162 48.237 L 5.162 48.629 L 4.77 48.629 L 4.77 48.237 Z M 5.162 48.629 L 5.554 48.629 L 5.554 49.021 L 5.162 49.021 L 5.162 48.629 Z M 9.472 52.939 L 9.08 52.939 L 9.08 52.547 L 9.472 52.547 L 9.472 52.939 Z M 9.472 55.289 L 9.472 54.898 L 9.08 54.898 L 9.08 53.33 L 9.472 53.33 L 9.472 52.939 L 9.864 52.939 L 9.864 52.547 L 11.432 52.547 L 11.432 52.939 L 11.823 52.939 L 11.823 53.33 L 12.215 53.33 L 12.215 54.114 L 12.607 54.114 L 12.607 54.506 L 12.999 54.506 L 12.999 54.898 L 13.391 54.898 L 13.391 53.722 L 13.783 53.722 L 13.783 54.114 L 14.175 54.114 L 14.175 54.506 L 14.566 54.506 L 14.566 54.898 L 13.783 54.898 L 13.783 55.289 L 13.391 55.289 L 13.391 56.073 L 12.999 56.073 L 12.999 55.681 L 12.607 55.681 L 12.607 55.289 L 12.215 55.289 L 12.215 54.898 L 11.823 54.898 L 11.823 54.506 L 11.432 54.506 L 11.432 54.114 L 11.04 54.114 L 11.04 53.722 L 10.648 53.722 L 10.648 53.33 L 10.256 53.33 L 10.256 53.722 L 9.864 53.722 L 9.864 54.114 L 10.256 54.114 L 10.256 54.506 L 10.648 54.506 L 10.648 54.898 L 11.04 54.898 L 11.04 55.289 L 11.432 55.289 L 11.432 55.681 L 11.823 55.681 L 11.823 56.073 L 12.215 56.073 L 12.215 56.465 L 12.607 56.465 L 12.607 56.857 L 11.823 56.857 L 11.823 57.248 L 11.432 57.248 L 11.432 58.032 L 11.04 58.032 L 11.04 57.64 L 10.648 57.64 L 10.648 57.248 L 10.256 57.248 L 10.256 56.857 L 11.432 56.857 L 11.432 56.465 L 11.04 56.465 L 11.04 56.073 L 10.648 56.073 L 10.648 55.681 L 9.864 55.681 L 9.864 55.289 L 9.472 55.289 Z M 11.04 54.506 L 10.648 54.506 L 10.648 54.114 L 11.04 54.114 L 11.04 54.506 Z M 11.432 54.898 L 11.04 54.898 L 11.04 54.506 L 11.432 54.506 L 11.432 54.898 Z M 11.823 55.289 L 11.432 55.289 L 11.432 54.898 L 11.823 54.898 L 11.823 55.289 Z M 12.215 55.681 L 11.823 55.681 L 11.823 55.289 L 12.215 55.289 L 12.215 55.681 Z M 12.607 56.073 L 12.215 56.073 L 12.215 55.681 L 12.607 55.681 L 12.607 56.073 Z M 12.999 56.465 L 12.607 56.465 L 12.607 56.073 L 12.999 56.073 L 12.999 56.465 Z M 10.648 58.032 L 10.256 58.032 L 10.256 57.64 L 10.648 57.64 L 10.648 58.032 Z M 14.566 54.114 L 14.175 54.114 L 14.175 53.722 L 14.566 53.722 L 14.566 54.114 Z M 14.175 56.073 L 13.783 56.073 L 13.783 55.681 L 14.175 55.681 L 14.175 56.073 Z M 14.566 56.857 L 13.783 56.857 L 13.783 57.248 L 13.391 57.248 L 13.391 58.032 L 12.607 58.032 L 12.607 57.64 L 12.999 57.64 L 12.999 56.465 L 14.175 56.465 L 14.175 56.073 L 14.566 56.073 L 14.566 56.857 Z M 14.175 58.032 L 13.783 58.032 L 13.783 57.248 L 14.566 57.248 L 14.566 57.64 L 14.175 57.64 L 14.175 58.032 Z M 12.607 57.64 L 12.215 57.64 L 12.215 57.248 L 12.607 57.248 L 12.607 57.64 Z M 9.08 52.547 L 8.689 52.547 L 8.689 52.155 L 9.08 52.155 L 9.08 52.547 Z M 8.689 52.155 L 8.297 52.155 L 8.297 51.763 L 8.689 51.763 L 8.689 52.155 Z M 8.297 51.763 L 7.905 51.763 L 7.905 51.371 L 8.297 51.371 L 8.297 51.763 Z M 7.905 51.371 L 7.513 51.371 L 7.513 50.98 L 7.905 50.98 L 7.905 51.371 Z M 3.594 52.939 L 3.594 52.547 L 3.986 52.547 L 3.986 52.939 L 3.594 52.939 Z M 1.243 52.939 L 1.635 52.939 L 1.635 52.547 L 3.203 52.547 L 3.203 52.939 L 3.594 52.939 L 3.594 53.33 L 3.986 53.33 L 3.986 54.898 L 3.594 54.898 L 3.594 55.289 L 3.203 55.289 L 3.203 55.681 L 2.419 55.681 L 2.419 56.073 L 2.027 56.073 L 2.027 56.465 L 1.635 56.465 L 1.635 56.857 L 2.811 56.857 L 2.811 57.248 L 2.419 57.248 L 2.419 57.64 L 2.027 57.64 L 2.027 58.032 L 1.635 58.032 L 1.635 57.248 L 1.243 57.248 L 1.243 56.857 L 0.46 56.857 L 0.46 56.465 L 0.852 56.465 L 0.852 56.073 L 1.243 56.073 L 1.243 55.681 L 1.635 55.681 L 1.635 55.289 L 2.027 55.289 L 2.027 54.898 L 2.419 54.898 L 2.419 54.506 L 2.811 54.506 L 2.811 54.114 L 3.203 54.114 L 3.203 53.722 L 2.811 53.722 L 2.811 53.33 L 2.419 53.33 L 2.419 53.722 L 2.027 53.722 L 2.027 54.114 L 1.635 54.114 L 1.635 54.506 L 1.243 54.506 L 1.243 54.898 L 0.852 54.898 L 0.852 55.289 L 0.46 55.289 L 0.46 55.681 L 0.068 55.681 L 0.068 56.073 L -0.324 56.073 L -0.324 55.289 L -0.716 55.289 L -0.716 54.898 L -1.5 54.898 L -1.5 54.506 L -1.108 54.506 L -1.108 54.114 L -0.716 54.114 L -0.716 53.722 L -0.324 53.722 L -0.324 54.898 L 0.068 54.898 L 0.068 54.506 L 0.46 54.506 L 0.46 54.114 L 0.852 54.114 L 0.852 53.33 L 1.243 53.33 L 1.243 52.939 Z M 2.027 54.506 L 2.027 54.114 L 2.419 54.114 L 2.419 54.506 L 2.027 54.506 Z M 1.635 54.898 L 1.635 54.506 L 2.027 54.506 L 2.027 54.898 L 1.635 54.898 Z M 1.243 55.289 L 1.243 54.898 L 1.635 54.898 L 1.635 55.289 L 1.243 55.289 Z M 0.852 55.681 L 0.852 55.289 L 1.243 55.289 L 1.243 55.681 L 0.852 55.681 Z M 0.46 56.073 L 0.46 55.681 L 0.852 55.681 L 0.852 56.073 L 0.46 56.073 Z M 0.068 56.465 L 0.068 56.073 L 0.46 56.073 L 0.46 56.465 L 0.068 56.465 Z M -1.5 54.114 L -1.5 53.722 L -1.108 53.722 L -1.108 54.114 L -1.5 54.114 Z M 2.419 58.032 L 2.419 57.64 L 2.811 57.64 L 2.811 58.032 L 2.419 58.032 Z M 0.46 57.64 L 0.46 57.248 L 0.852 57.248 L 0.852 57.64 L 0.46 57.64 Z M -0.324 58.032 L -0.324 57.248 L -0.716 57.248 L -0.716 56.857 L -1.5 56.857 L -1.5 56.073 L -1.108 56.073 L -1.108 56.465 L 0.068 56.465 L 0.068 57.64 L 0.46 57.64 L 0.46 58.032 L -0.324 58.032 Z M -1.5 57.64 L -1.5 57.248 L -0.716 57.248 L -0.716 58.032 L -1.108 58.032 L -1.108 57.64 L -1.5 57.64 Z M -1.108 56.073 L -1.108 55.681 L -0.716 55.681 L -0.716 56.073 L -1.108 56.073 Z M 3.986 52.547 L 3.986 52.155 L 4.378 52.155 L 4.378 52.547 L 3.986 52.547 Z M 4.378 52.155 L 4.378 51.763 L 4.77 51.763 L 4.77 52.155 L 4.378 52.155 Z M 4.77 51.763 L 4.77 51.371 L 5.162 51.371 L 5.162 51.763 L 4.77 51.763 Z M 5.162 51.371 L 5.162 50.98 L 5.554 50.98 L 5.554 51.371 L 5.162 51.371 Z M 9.472 47.062 L 9.472 47.454 L 9.08 47.454 L 9.08 47.062 L 9.472 47.062 Z M 11.823 47.062 L 11.432 47.062 L 11.432 47.454 L 9.864 47.454 L 9.864 47.062 L 9.472 47.062 L 9.472 46.67 L 9.08 46.67 L 9.08 45.103 L 9.472 45.103 L 9.472 44.711 L 9.864 44.711 L 9.864 44.319 L 10.648 44.319 L 10.648 43.927 L 11.04 43.927 L 11.04 43.536 L 11.432 43.536 L 11.432 43.144 L 10.256 43.144 L 10.256 42.752 L 10.648 42.752 L 10.648 42.36 L 11.04 42.36 L 11.04 41.968 L 11.432 41.968 L 11.432 42.752 L 11.823 42.752 L 11.823 43.144 L 12.607 43.144 L 12.607 43.536 L 12.215 43.536 L 12.215 43.927 L 11.823 43.927 L 11.823 44.319 L 11.432 44.319 L 11.432 44.711 L 11.04 44.711 L 11.04 45.103 L 10.648 45.103 L 10.648 45.495 L 10.256 45.495 L 10.256 45.886 L 9.864 45.886 L 9.864 46.278 L 10.256 46.278 L 10.256 46.67 L 10.648 46.67 L 10.648 46.278 L 11.04 46.278 L 11.04 45.886 L 11.432 45.886 L 11.432 45.495 L 11.823 45.495 L 11.823 45.103 L 12.215 45.103 L 12.215 44.711 L 12.607 44.711 L 12.607 44.319 L 12.999 44.319 L 12.999 43.927 L 13.391 43.927 L 13.391 44.711 L 13.783 44.711 L 13.783 45.103 L 14.566 45.103 L 14.566 45.495 L 14.175 45.495 L 14.175 45.886 L 13.783 45.886 L 13.783 46.278 L 13.391 46.278 L 13.391 45.103 L 12.999 45.103 L 12.999 45.495 L 12.607 45.495 L 12.607 45.886 L 12.215 45.886 L 12.215 46.67 L 11.823 46.67 L 11.823 47.062 Z M 11.04 45.495 L 11.04 45.886 L 10.648 45.886 L 10.648 45.495 L 11.04 45.495 Z M 11.432 45.103 L 11.432 45.495 L 11.04 45.495 L 11.04 45.103 L 11.432 45.103 Z M 11.823 44.711 L 11.823 45.103 L 11.432 45.103 L 11.432 44.711 L 11.823 44.711 Z M 12.215 44.319 L 12.215 44.711 L 11.823 44.711 L 11.823 44.319 L 12.215 44.319 Z M 12.607 43.927 L 12.607 44.319 L 12.215 44.319 L 12.215 43.927 L 12.607 43.927 Z M 12.999 43.536 L 12.999 43.927 L 12.607 43.927 L 12.607 43.536 L 12.999 43.536 Z M 14.566 45.886 L 14.566 46.278 L 14.175 46.278 L 14.175 45.886 L 14.566 45.886 Z M 10.648 41.968 L 10.648 42.36 L 10.256 42.36 L 10.256 41.968 L 10.648 41.968 Z M 12.607 42.36 L 12.607 42.752 L 12.215 42.752 L 12.215 42.36 L 12.607 42.36 Z M 13.391 41.968 L 13.391 42.752 L 13.783 42.752 L 13.783 43.144 L 14.566 43.144 L 14.566 43.927 L 14.175 43.927 L 14.175 43.536 L 12.999 43.536 L 12.999 42.36 L 12.607 42.36 L 12.607 41.968 L 13.391 41.968 Z M 14.566 42.36 L 14.566 42.752 L 13.783 42.752 L 13.783 41.968 L 14.175 41.968 L 14.175 42.36 L 14.566 42.36 Z M 14.175 43.927 L 14.175 44.319 L 13.783 44.319 L 13.783 43.927 L 14.175 43.927 Z M 9.08 47.454 L 9.08 47.845 L 8.689 47.845 L 8.689 47.454 L 9.08 47.454 Z M 8.689 47.845 L 8.689 48.237 L 8.297 48.237 L 8.297 47.845 L 8.689 47.845 Z M 8.297 48.237 L 8.297 48.629 L 7.905 48.629 L 7.905 48.237 L 8.297 48.237 Z M 7.905 48.629 L 7.905 49.021 L 7.513 49.021 L 7.513 48.629 L 7.905 48.629 Z M 7.513 37.267 L 7.513 37.659 L 7.121 37.659 L 7.121 38.05 L 6.729 38.05 L 6.729 37.659 L 6.337 37.659 L 6.337 38.05 L 5.946 38.05 L 5.946 37.659 L 5.554 37.659 L 5.554 37.267 L 5.946 37.267 L 5.946 36.875 L 6.337 36.875 L 6.337 37.267 L 6.729 37.267 L 6.729 36.875 L 7.121 36.875 L 7.121 37.267 L 7.513 37.267 Z M 7.513 62.342 L 7.513 62.733 L 7.121 62.733 L 7.121 63.125 L 6.729 63.125 L 6.729 62.733 L 6.338 62.733 L 6.338 63.125 L 5.946 63.125 L 5.946 62.733 L 5.554 62.733 L 5.554 62.342 L 5.946 62.342 L 5.946 61.95 L 6.338 61.95 L 6.338 62.342 L 6.729 62.342 L 6.729 61.95 L 7.121 61.95 L 7.121 62.342 L 7.513 62.342 Z M 16.134 37.267 L 16.134 37.659 L 15.742 37.659 L 15.742 38.05 L 15.35 38.05 L 15.35 38.442 L 14.958 38.442 L 14.958 38.834 L 14.566 38.834 L 14.566 38.442 L 14.175 38.442 L 14.175 38.05 L 13.783 38.05 L 13.783 37.659 L 13.391 37.659 L 13.391 37.267 L 13.783 37.267 L 13.783 36.875 L 14.175 36.875 L 14.175 36.483 L 14.566 36.483 L 14.566 36.091 L 14.958 36.091 L 14.958 36.483 L 15.35 36.483 L 15.35 36.875 L 15.742 36.875 L 15.742 37.267 L 16.134 37.267 Z M 14.566 36.875 L 14.566 37.267 L 14.175 37.267 L 14.175 37.659 L 14.566 37.659 L 14.566 38.05 L 14.958 38.05 L 14.958 37.659 L 15.35 37.659 L 15.35 37.267 L 14.958 37.267 L 14.958 36.875 L 14.566 36.875 Z M 16.134 62.342 L 16.134 62.733 L 15.742 62.733 L 15.742 63.125 L 15.35 63.125 L 15.35 63.517 L 14.958 63.517 L 14.958 63.909 L 14.566 63.909 L 14.566 63.517 L 14.175 63.517 L 14.175 63.125 L 13.783 63.125 L 13.783 62.733 L 13.391 62.733 L 13.391 62.342 L 13.783 62.342 L 13.783 61.95 L 14.175 61.95 L 14.175 61.558 L 14.566 61.558 L 14.566 61.166 L 14.958 61.166 L 14.958 61.558 L 15.35 61.558 L 15.35 61.95 L 15.742 61.95 L 15.742 62.342 L 16.134 62.342 Z M 14.566 61.95 L 14.566 62.342 L 14.175 62.342 L 14.175 62.733 L 14.566 62.733 L 14.566 63.125 L 14.958 63.125 L 14.958 62.733 L 15.35 62.733 L 15.35 62.342 L 14.958 62.342 L 14.958 61.95 L 14.566 61.95 Z M 13.783 48.237 L 13.783 47.845 L 14.175 47.845 L 14.175 47.453 L 14.567 47.453 L 14.567 47.062 L 14.959 47.062 L 14.959 47.453 L 15.35 47.453 L 15.35 47.845 L 15.742 47.845 L 15.742 48.237 L 15.35 48.237 L 15.35 48.629 L 14.959 48.629 L 14.959 49.021 L 14.567 49.021 L 14.567 48.629 L 14.175 48.629 L 14.175 48.237 L 13.783 48.237 Z M 14.567 47.845 L 14.567 48.237 L 14.959 48.237 L 14.959 47.845 L 14.567 47.845 Z M 13.783 52.155 L 13.783 51.763 L 14.175 51.763 L 14.175 51.371 L 14.567 51.371 L 14.567 50.98 L 14.959 50.98 L 14.959 51.371 L 15.35 51.371 L 15.35 51.763 L 15.742 51.763 L 15.742 52.155 L 15.35 52.155 L 15.35 52.547 L 14.959 52.547 L 14.959 52.939 L 14.567 52.939 L 14.567 52.547 L 14.175 52.547 L 14.175 52.155 L 13.783 52.155 Z M 14.567 51.763 L 14.567 52.155 L 14.959 52.155 L 14.959 51.763 L 14.567 51.763 Z"/>
  <path id="frontman" style="fill: #cc0000" d="M 33.71 39.136 C 33.99 39.136 34.433 39.55 34.126 39.738 C 34.059 39.526 33.37 39.357 33.71 39.136 Z M 33.987 41.218 L 33.848 41.311 C 33.857 41.332 33.722 41.107 33.848 41.08 C 34.068 40.805 33.664 40.049 33.663 40.018 C 33.467 39.923 34.69 40.578 34.45 41.265 C 34.276 41.086 34.106 41.073 33.987 41.218 Z M 32.969 39.275 C 33.031 39.3 33.043 39.52 32.83 39.46 C 32.769 39.435 32.757 39.215 32.969 39.275 Z M 34.82 44.873 C 34.884 44.446 34.687 44.116 34.543 43.763 C 34.543 43.609 34.543 43.455 34.543 43.3 C 34.718 42.918 34.895 41.966 35.237 42.144 C 35.624 42.769 35.233 43.21 35.237 43.856 C 35.237 44.01 35.237 44.164 35.237 44.318 C 35.194 44.494 35.167 44.793 35.144 44.92 C 35.149 44.92 34.82 44.873 34.82 44.873 Z M 56.845 47.372 C 56.845 47.372 56.774 47.108 56.892 47.141 C 57.098 47.173 58.258 47.528 57.586 47.696 C 57.596 47.794 57.256 47.716 57.123 47.742 C 57.042 47.607 56.856 47.578 56.845 47.372 Z M 46.896 61.206 C 46.96 61.14 46.944 60.493 46.896 60.327 C 46.956 59.562 46.931 58.866 47.776 58.8 C 47.9 58.776 47.743 58.293 47.868 58.199 C 48.062 57.837 48.656 57.876 48.747 57.412 C 49.058 57.22 49.065 56.581 49.256 56.209 C 49.939 56.295 50.605 55.385 50.182 54.451 C 50.217 54.399 50.635 54.554 50.598 54.358 C 51.055 54.291 50.747 53.458 51.2 53.387 C 51.2 53.387 51.57 53.433 51.755 53.433 C 52.324 53.336 51.885 54.391 52.588 54.22 C 53.262 54.173 52.429 53.44 53.005 53.248 C 53.241 53.013 53.416 52.572 53.791 52.415 C 54.089 52.158 54.3 51.814 54.671 51.629 C 55.175 51.454 54.276 50.82 54.948 50.657 C 55.175 51.168 55.978 50.848 55.411 50.379 C 55.095 50.058 55.695 49.687 55.642 49.223 C 55.905 48.93 55.935 48.404 56.29 48.205 C 56.304 48.224 56.367 48.117 56.475 48.159 C 57.195 48.31 56.496 48.739 56.244 48.899 C 56.235 49.399 56.731 49.717 56.29 50.055 C 55.626 50.11 56.444 50.687 56.568 50.842 C 56.75 51.411 56.217 51.555 56.013 51.86 C 55.854 51.915 55.317 51.762 55.226 51.952 C 55.15 52.321 55.509 52.88 55.966 52.97 C 55.989 53.448 55.426 53.69 55.365 54.22 C 55.943 54.793 55.254 55.141 54.671 55.099 C 53.841 55.096 54.904 56.292 53.884 56.07 C 53.889 56.07 53.719 56.07 53.653 56.07 C 52.602 55.344 53.839 57.342 53.19 57.597 C 52.87 58.295 52.424 58.868 51.709 59.17 C 51.631 59.873 50.743 59.54 50.552 60.188 C 50.579 60.341 50.363 60.636 50.182 60.512 C 49.558 60.581 49.805 61.651 48.84 61.437 C 48.708 61.486 48.578 61.712 48.377 61.761 C 48.218 61.758 47.517 61.825 47.405 61.854 C 47.073 61.938 46.679 61.637 46.896 61.206 Z M 54.023 56.533 C 54.328 56.658 54.171 57.009 53.884 57.042 C 53.578 56.917 53.735 56.566 54.023 56.533 Z M 57.355 46.262 C 57.528 46.407 58.592 46.712 57.956 46.863 C 58.002 46.935 57.77 46.905 57.678 46.909 C 57.467 46.825 56.63 46.296 57.355 46.262 Z M 58.234 44.503 C 58.429 44.568 58.659 45.167 58.141 45.059 C 57.895 44.945 57.754 44.48 58.234 44.503 Z M 58.187 45.938 C 58.249 45.963 58.261 46.183 58.049 46.123 C 57.987 46.098 57.975 45.878 58.187 45.938 Z M 46.25 85.959 C 46.469 85.17 46.675 84.256 46.944 83.461 C 47.032 83.253 46.964 83.131 46.99 82.998 C 47.232 82.469 47.327 81.793 47.499 81.194 C 47.837 80.299 46.76 80.291 46.203 80.592 C 46.065 80.55 45.678 80.56 45.556 80.638 C 44.978 80.912 42.45 81.281 42.224 81.332 C 41.596 81.485 41.16 81.273 41.113 81.194 C 40.59 80.463 37.059 80.325 36.624 80.638 C 36.563 80.664 36.223 80.587 36.162 80.685 C 35.733 80.791 35.557 81.29 35.282 81.61 C 34.955 81.9 34.825 82.387 34.588 82.767 C 34.396 83.109 34.137 83.525 34.079 84.062 C 33.856 84.457 33.594 84.811 33.385 85.219 C 33.182 85.55 32.991 86.034 32.784 86.422 C 32.49 86.674 32.266 86.49 32.058 86.281 C 31.928 86.15 31.146 85.252 31.025 84.756 C 30.614 84.308 30.797 82.468 30.797 82.468 C 30.881 81.235 30.059 77.863 29.591 77.492 C 29.485 76.981 29.224 76.625 29.035 76.197 C 28.873 75.792 28.432 75.529 28.48 74.855 C 28.452 74.574 28.419 73.857 28.341 73.421 C 28.22 72.586 28.026 71.824 27.74 71.154 C 27.498 70.481 27.101 69.847 26.629 69.349 C 26.239 68.783 25.64 68.426 25.102 68.007 C 24.512 67.683 23.783 67.381 23.112 67.082 C 21.951 66.65 23.524 66.087 23.852 65.879 C 24.4 65.512 24.913 64.995 25.287 64.399 C 25.69 63.845 25.963 63.168 26.213 62.455 C 26.506 61.618 26.81 58.538 26.768 58.245 C 26.768 57.782 26.542 54.413 26.583 54.266 C 26.583 54.148 26.583 53.761 26.583 53.572 C 26.696 52.96 26.718 52.13 26.768 51.397 C 26.798 51.049 26.98 47.846 26.999 47.094 C 27.145 46.674 27.21 46.034 27.323 45.521 C 27.492 44.666 28.034 45.44 27.971 45.984 C 28.125 46.42 28.659 46.692 28.573 47.233 C 28.826 47.519 29.389 48.203 29.313 48.482 C 29.433 48.41 29.603 48.482 29.729 48.482 C 30.231 49.03 30.412 49.898 30.979 50.379 C 31.587 50.584 30.984 52.793 32.089 51.814 C 32.497 51.172 32.579 50.205 33.154 49.732 C 33.439 49.008 33.57 48.02 34.126 47.511 C 34.223 47.423 34.146 47.161 34.172 47.002 C 34.222 46.805 34.278 46.614 34.311 46.4 C 34.362 46.203 34.331 46.071 34.357 45.938 C 34.612 45.22 35.213 46.022 34.82 46.539 C 34.733 47.069 34.543 47.496 34.588 48.159 C 34.579 48.702 34.713 49.244 35.005 49.547 C 35.341 49.828 35.39 50.369 36.115 50.315 C 36.115 50.315 36.486 50.333 36.671 50.333 C 36.93 50.47 37.336 50.961 37.735 50.611 C 37.985 50.306 38.293 50.058 38.707 49.917 C 38.966 49.705 39.536 49.659 39.91 49.5 C 40.675 49.46 40.253 50.159 39.817 50.148 C 39.687 50.172 39.459 50.098 39.401 50.194 C 38.888 50.514 38.315 50.774 37.781 51.073 C 37.434 51.559 36.819 51.777 36.3 52.091 C 35.862 52.486 35.27 52.727 34.681 52.97 C 34.019 52.947 33.782 54.321 34.588 54.358 C 34.588 54.358 35.072 54.456 35.19 54.358 C 35.237 54.38 35.355 54.295 35.421 54.266 C 35.509 54.266 35.771 54.266 35.93 54.266 C 36.635 54.57 36.991 55.334 37.874 55.515 C 38.593 55.257 39.284 54.747 40.188 54.729 C 40.188 54.729 41.214 54.775 41.715 54.775 C 42.011 54.992 42.69 54.703 43.149 54.867 C 43.729 55.252 43.082 55.549 42.594 55.515 C 41.99 55.527 41.689 55.731 41.252 55.561 C 40.934 55.705 40.364 55.427 39.91 55.423 C 39.808 55.436 39.731 55.355 39.632 55.423 C 39.017 55.903 38.192 55.83 37.504 56.255 C 37.416 56.255 37.154 56.255 36.995 56.255 C 36.279 56.059 35.821 56.465 35.514 56.811 C 35.227 57.458 36.263 57.393 36.624 57.643 C 36.624 57.658 37.303 57.705 37.642 57.69 C 38.119 57.768 38.412 58.031 38.799 58.199 C 39.106 58.448 39.335 58.774 39.447 59.217 C 39.447 59.402 39.494 59.772 39.494 59.772 C 39.675 59.935 39.811 60.482 39.355 60.512 C 39.224 60.493 38.51 60.556 38.244 60.466 C 38.025 60.499 37.964 60.376 37.781 60.373 C 37.461 60.286 36.838 60.352 36.393 60.327 C 36.334 60.327 36.103 60.327 35.977 60.327 C 35.502 60.172 34.971 60.328 34.959 60.836 C 34.922 61.009 34.959 61.16 34.959 61.16 C 35.127 61.608 35.671 61.682 35.653 62.316 C 35.527 62.505 35.948 63.259 37.041 63.242 C 37.565 63.365 40.181 64.23 41.067 64.028 C 41.903 64.231 42.561 63.901 43.196 63.705 C 43.283 63.607 43.546 63.684 43.704 63.658 C 44.449 63.741 44.702 63.201 45.232 63.011 C 45.423 62.479 46.345 62.403 46.065 63.242 C 45.605 63.444 45.481 64.113 45.046 64.399 C 44.693 64.949 45.58 65.219 46.157 65.231 C 46.157 65.317 47.684 65.602 47.869 65.463 C 48.632 65.718 47.726 66.286 47.638 66.619 C 47.48 67.092 47.315 67.69 46.944 68.007 C 46.69 68.433 46.324 68.745 46.157 69.257 C 46.134 69.713 45.432 70.192 45.741 70.645 C 45.828 71.085 47.113 70.037 47.407 69.349 C 47.836 68.884 48.126 68.279 48.702 67.961 C 49.172 67.137 49.865 68.176 50.414 68.146 C 51.382 67.669 50.038 67.151 50.229 66.388 C 50.238 66.32 50.236 66.091 50.137 66.064 C 50.117 66.024 50.042 65.869 49.998 65.787 C 49.958 65.613 50.052 65.367 49.998 65.324 C 50.116 64.971 50.49 64.728 50.738 64.445 C 51.01 64.161 52.08 63.034 52.358 62.779 C 52.58 62.446 53.493 61.161 53.839 60.975 C 54.183 60.764 54.964 59.323 55.088 58.893 C 55.353 58.379 55.839 58.752 55.921 59.17 C 56.091 59.471 56.27 59.909 56.476 60.234 C 56.668 60.598 57.163 62.301 57.309 62.687 C 57.411 63.141 57.958 64.792 58.142 65.139 C 58.278 65.558 59.074 66.984 59.253 67.36 C 59.494 67.699 59.412 68.416 59.114 68.609 C 58.944 68.91 58.666 69.248 58.513 69.627 C 58.331 70.001 58.18 70.405 58.096 70.876 C 58.006 71.257 57.807 71.675 57.587 71.986 C 57.316 72.271 57.073 72.582 56.847 72.912 C 56.633 73.169 55.816 74.611 55.551 74.901 C 55.322 75.228 54.365 76.492 54.163 76.845 C 53.92 77.073 53.029 78.44 52.867 78.834 C 52.719 79.241 52.562 79.64 52.451 80.083 C 52.327 80.514 52.274 81.017 52.034 81.332 C 51.929 81.698 51.539 81.925 51.386 82.304 C 51.052 82.525 50.979 83.007 50.692 83.276 C 50.466 83.605 50.079 83.773 49.72 83.97 C 49.363 84.167 48.669 84.029 48.425 84.34 C 48.391 84.412 48.088 84.412 48.054 84.34 C 47.207 83.555 47.132 85.34 46.851 85.867 C 46.343 86.438 46.302 87.477 45.694 87.949 C 45.744 87.993 45.59 88.009 45.509 87.995 C 45.043 87.192 46.134 86.695 46.25 85.959 Z M 33.894 80.176 C 34.47 79.734 35.017 79.263 35.56 78.788 C 35.999 78.208 36.678 77.87 37.226 77.4 C 37.528 76.701 38.6 76.712 38.846 76.012 C 38.912 75.784 38.527 75.861 38.522 75.965 C 37.918 76.27 37.342 76.665 36.763 76.937 C 36.182 77.25 35.583 77.546 35.144 78.001 C 34.71 78.462 34.015 78.662 33.709 79.25 C 33.165 79.601 33.023 80.354 32.737 80.962 C 32.684 81.006 32.778 81.252 32.737 81.425 C 32.539 81.599 32.334 82.253 32.737 82.304 C 32.706 82.278 32.954 82.356 32.922 82.258 C 33.117 81.435 33.578 80.877 33.894 80.176 Z M 49.072 76.058 C 49.072 75.971 49.072 75.708 49.072 75.549 C 49.119 75.314 49.361 75.172 49.535 75.133 C 49.569 75.061 49.871 75.061 49.905 75.133 C 50.499 75.86 51.541 75.51 50.692 74.67 C 50.042 74.434 49.806 73.575 48.934 73.698 C 48.875 73.698 48.644 73.698 48.517 73.698 C 47.998 73.82 47.095 72.993 47.407 74.022 C 47.694 74.444 48.216 74.632 48.471 75.086 C 48.471 75.364 48.471 75.807 48.471 76.151 C 48.49 76.518 49.12 76.523 49.072 76.058 Z M 33.385 75.549 C 33.903 74.894 33.195 74.658 32.876 75.225 C 32.052 75.426 33.41 74.363 32.367 74.485 C 32.11 74.094 31.741 73.816 31.21 73.698 C 30.875 73.656 30.234 72.66 30.238 73.421 C 30.398 73.666 31.344 74.053 30.84 74.3 C 31.088 74.742 31.156 75.115 30.933 75.503 C 31.382 75.701 31.529 76.202 32.043 76.336 L 32.136 76.289 C 32.576 76.072 33.009 75.771 33.385 75.549 Z M 38.059 75.086 C 38.417 74.99 39.268 74.658 38.661 74.115 C 38.116 74.453 37.35 74.192 38.198 73.837 C 38.542 73.658 39.383 73.273 39.447 73.976 C 39.931 74.225 40.33 74.211 40.974 74.3 C 41.29 74.36 42.168 74.924 42.316 74.346 C 42.096 73.919 41.686 73.68 41.298 73.421 C 40.733 73.205 40.394 73.119 39.956 73.097 C 39.932 72.967 40.006 72.738 39.91 72.68 C 39.431 72.155 39.102 73.044 38.661 73.097 C 38.195 73.289 37.627 73.455 37.365 73.791 C 36.909 74.013 36.457 74.241 36.115 74.577 C 35.362 75.012 36.481 75.218 36.624 75.503 C 36.519 75.184 37.593 75.227 38.059 75.086 Z M 35.468 73.745 C 35.935 73.735 36.808 73.483 36.393 73.051 C 36.373 72.952 35.999 73.032 35.838 73.004 C 35.638 73.013 34.518 72.985 34.357 72.958 C 33.656 72.587 34.291 72.136 34.773 72.125 C 35.195 71.994 35.692 71.35 34.959 71.246 C 34.553 71.865 32.418 71.693 32.275 71.431 C 30.998 71.483 32.41 72.284 32.876 72.31 C 33.364 72.351 34.431 73.473 33.154 73.467 C 32.72 73.006 31.739 73.092 31.21 72.727 C 31.346 73.318 32.196 73.501 32.691 73.791 C 33.04 73.764 33.582 73.835 33.802 73.745 C 34.134 73.537 35.136 73.537 35.468 73.745 Z M 43.242 72.264 C 43.66 72.835 43.849 71.681 43.658 71.431 C 43.336 71.106 43.068 70.726 42.733 70.413 C 42.462 70.258 41.866 69.563 41.715 69.951 C 41.971 70.342 42.355 70.606 42.548 71.061 C 42.805 71.43 43.065 71.874 43.242 72.264 Z M 51.016 71.477 C 51.088 71.416 51.088 71.076 51.016 71.015 C 50.641 70.62 50.61 69.357 50.646 69.349 C 50.028 68.7 49.776 70.026 49.35 70.228 C 49.206 70.393 49.408 70.564 49.443 70.691 C 50.101 70.745 49.36 71.882 50.091 71.894 C 50.247 72.057 50.939 71.726 51.016 71.477 Z M 30.47 65.37 C 30.467 65.927 32.413 66.127 32.46 65.648 C 32.842 65.592 33.17 65.391 33.339 65.185 C 33.62 65.157 33.939 65.177 34.218 65.139 C 34.533 65.12 34.667 64.616 34.449 64.491 C 33.885 64.054 32.989 63.89 32.46 63.473 C 31.841 63.091 31.334 62.537 30.747 62.178 C 30.297 61.201 29.194 62.344 29.637 62.872 C 30.076 63.434 30.057 64.513 30.516 65 C 30.43 64.974 30.485 65.258 30.47 65.37 Z M 26.444 44.087 C 26.321 44.002 26.447 43.825 26.444 43.717 C 26.298 42.797 25.595 43.903 25.149 43.671 C 25.313 43.184 24.585 42.435 25.149 42.097 C 25.149 42.097 25.602 42.247 25.565 42.051 C 26.284 41.867 25.642 41.225 25.149 41.635 C 25.017 42.172 24.395 41.854 24.131 41.589 C 23.472 41.431 23.671 41.034 24.177 40.894 C 24.651 41.012 25.337 40.633 25.01 40.293 C 24.952 40.197 24.724 40.271 24.593 40.247 C 24.04 40.925 23.333 39.957 22.789 40.478 C 22.337 40.124 22.154 39.306 22.233 38.674 C 22.353 38.529 22.168 38.166 22.187 38.165 C 22.388 38.055 22.588 37.784 22.789 37.61 C 22.86 37.548 22.86 37.208 22.789 37.147 C 22.576 36.856 22.742 36.045 22.002 36.221 C 21.835 36.183 21.151 36.112 20.984 36.268 C 20.49 36.714 21.566 36.703 21.493 37.193 C 21.422 37.742 21.394 38.145 22.094 38.026 C 21.943 38.536 21.007 38.393 20.336 38.442 C 19.799 38.239 19.362 37.936 19.087 37.471 C 19.087 37.412 19.087 37.181 19.087 37.054 C 19.099 36.564 19.419 36.238 19.596 35.851 C 19.819 35.572 20.068 35.175 20.382 34.926 C 20.619 34.659 21.152 34.547 21.4 34.232 C 21.591 33.938 21.928 33.412 21.678 32.936 C 21.644 32.816 21.342 32.964 21.308 32.844 C 20.915 32.702 20.331 32.611 20.105 32.242 C 19.721 32.009 19.434 31.679 19.179 31.317 C 19.153 31.158 19.231 30.895 19.133 30.808 C 19.643 30.195 20.16 31.968 21.03 31.178 C 20.699 30.49 22.819 30.65 21.585 30.207 C 21.507 30.366 21.185 30.241 20.984 30.207 C 20.201 30.012 19.577 29.546 19.549 28.541 C 19.831 27.552 20.054 27.142 19.827 26.043 C 19.904 25.782 19.846 25.649 19.873 25.487 C 20.039 25.151 20.26 24.726 20.66 24.562 C 20.904 24.105 21.442 24.582 21.863 24.423 C 21.971 24.685 21.572 24.441 21.632 24.654 C 21.377 24.935 21.035 25.268 20.799 25.626 C 20.66 26.58 21.464 25.987 21.724 25.811 C 21.879 25.811 22.033 25.811 22.187 25.811 C 22.45 25.702 22.938 25.902 22.604 26.181 C 22.473 26.205 22.312 26.128 22.187 26.228 C 21.193 26.622 21.901 27.557 22.604 27.708 C 22.604 27.955 22.604 28.202 22.604 28.448 C 21.971 29.543 23.385 28.909 23.344 28.217 C 23.484 27.989 23.219 26.166 23.066 25.626 C 23.449 25.349 24.016 24.497 23.668 23.96 C 23.644 23.83 23.718 23.602 23.622 23.544 C 23.413 23.239 22.774 22.474 23.575 22.249 C 23.978 21.717 24.634 22.035 25.01 22.387 C 25.598 22.581 25.858 21.844 26.074 21.416 C 26.236 20.94 25.935 20.256 26.306 19.704 C 26.502 19.238 26.909 18.852 27.277 18.501 C 27.986 18.469 28.299 18.042 28.712 17.714 C 29.37 17.843 29.502 16.598 30.1 17.344 C 30.719 17.421 31.109 16.832 30.887 16.095 C 31.33 15.876 31.489 15.243 31.997 15.031 C 32.649 15.093 32.857 14.144 33.432 14.522 C 33.213 14.841 32.87 16.212 33.571 15.401 C 34.005 15.095 34.361 14.71 34.774 14.383 C 34.87 13.494 35.827 14.626 36.162 13.967 C 36.644 14.283 37.471 14.53 37.134 13.458 C 36.632 13.211 36.666 11.986 37.412 12.625 C 37.692 12.861 38.505 13.674 39.124 13.458 C 39.905 13.554 40.424 11.812 40.836 12.856 C 40.769 12.951 40.679 13.168 40.836 13.226 C 40.836 13.226 41.501 12.665 41.947 12.579 C 42.024 12.415 42.249 12.64 42.085 12.717 C 41.494 13.202 42.315 13.864 42.687 13.504 C 43.073 13.218 44.087 13.191 43.659 13.92 C 43.669 14.261 44.268 14.405 44.493 14.106 C 44.493 14.106 44.492 14.106 44.492 14.105 C 44.513 14.031 44.624 13.94 44.677 13.967 C 45.588 13.687 45.661 12.538 44.399 12.532 C 44.225 11.772 45.505 12.505 45.602 12.81 C 45.859 12.831 45.972 12.911 46.204 13.041 C 46.806 13.448 47.408 13.966 47.731 14.707 C 47.979 15.282 48.844 15.496 49.027 14.707 C 49.18 14.479 49.492 14.688 49.489 14.892 C 49.489 15.046 49.489 15.2 49.489 15.355 C 49.401 15.642 50.222 15.775 50.739 15.355 C 50.952 15.205 51.849 14.909 52.127 15.308 C 52.3 15.822 51.796 16.152 51.757 16.65 C 51.477 16.917 50.777 16.704 50.693 17.298 C 50.386 17.212 49.59 17.264 50.137 17.899 C 50.299 18.272 50.388 18.859 50.785 19.056 C 51.196 19.062 51.446 18.139 51.849 18.871 C 52.284 19.323 52.618 18.579 52.96 18.455 C 52.96 18.455 53.347 18.492 53.423 18.408 C 54.043 18.231 54.473 17.805 54.626 17.298 C 55.078 17.258 55.488 18.656 55.737 17.39 C 55.788 17.416 55.876 17.302 56.014 17.344 C 56.11 17.495 56.009 17.843 56.153 17.946 C 56.153 18.254 56.153 18.563 56.153 18.871 C 56.313 19.368 57.584 18.76 56.893 19.981 C 56.293 20.887 58.206 20.528 57.634 21.323 C 56.347 21.249 56.844 21.918 57.449 22.249 C 57.472 22.956 58.67 22.832 58.606 23.544 C 58.55 23.883 58.576 24.512 58.837 24.978 C 59.637 25.71 57.952 25.229 57.773 25.904 C 57.685 25.932 57.519 25.868 57.449 25.811 C 56.917 25.633 56.502 25.338 56.569 24.562 C 56.154 24.315 56.323 23.354 56.014 22.943 C 55.987 22.821 56.065 22.417 55.968 22.295 C 55.65 21.856 55.666 20.958 54.857 20.953 C 54.209 20.54 53.451 21.823 53.238 20.953 C 53.784 20.098 52.262 20.632 52.035 20.907 C 51.828 21.497 50.717 21.236 50.23 20.999 C 50.077 20.914 49.944 20.977 49.813 20.953 C 49.167 20.372 48.556 21.131 47.87 20.861 C 47.765 20.828 47.58 20.861 47.453 20.861 C 46.966 20.68 45.948 20.637 45.741 21.184 C 45.577 21.777 44.651 21.732 44.26 22.156 C 44.008 22.825 42.916 22.472 42.687 22.064 C 42.197 21.888 41.841 21.12 41.345 21.138 C 41.251 21.29 41.326 21.779 41.299 22.064 C 41.062 23.114 40.063 21.962 39.725 21.786 C 39.129 21.416 38.87 20.808 37.735 21.092 C 37.678 21.15 37.448 21.15 37.319 21.092 C 36.829 20.887 36.752 21.56 36.44 21.74 C 36.19 22.214 35.725 22.175 35.607 21.647 C 35.331 21.673 34.857 21.938 34.45 22.017 C 34.062 22.184 33.582 22.26 33.524 22.758 C 33.524 22.817 33.524 23.047 33.524 23.174 C 33.413 23.375 32.838 22.811 32.414 23.128 C 31.774 22.82 31.729 24.105 31.026 24.146 C 30.263 24.235 30.153 25.095 29.591 25.441 C 29.495 25.499 29.569 25.727 29.545 25.857 C 28.571 26.457 29.046 30.261 29.545 30.716 C 29.944 30.72 30.07 32.053 29.545 31.919 C 29.414 31.808 29.195 31.962 29.128 32.057 C 28.798 32.611 28.566 33.347 28.851 34.001 C 28.037 34.079 28.502 35.885 29.267 34.926 C 30.027 34.975 30.724 34.751 31.488 34.926 C 32.129 35.105 32.735 35.44 33.432 35.62 C 34.173 35.742 34.426 36.353 34.913 36.73 C 35.37 37.093 35.775 37.629 35.885 38.396 C 35.885 38.514 35.977 39.136 35.977 39.136 C 36.073 39.318 35.996 39.673 36.023 39.923 C 35.82 40.429 35.74 41.058 35.468 41.496 C 34.685 41.467 35.795 40.641 34.913 40.478 C 34.855 40.444 34.678 40.485 34.774 40.293 C 35.092 40.245 35.323 39.675 34.959 39.414 C 35.102 39.476 35.102 38.981 34.959 39.044 C 34.855 38.753 34.831 38.705 34.866 38.304 C 34.842 38.173 34.916 37.945 34.82 37.887 C 34.594 37.451 33.966 37.287 33.571 36.962 C 32.926 36.978 32.389 36.461 31.812 36.684 C 31.593 36.712 31.268 36.633 31.118 36.73 C 30.384 36.661 29.953 36.43 29.36 36.869 C 28.813 37.669 29.992 37.543 30.193 38.026 C 30.493 38.419 31.275 38.459 31.673 38.812 C 32.007 38.832 32.964 38.989 31.951 39.414 C 31.821 39.438 31.593 39.364 31.535 39.46 C 31.144 39.959 31.773 40.226 32.044 39.877 C 31.993 40.279 31.946 41.151 31.535 40.987 C 31.593 40.266 30.405 40.663 30.424 39.923 C 30.209 40.072 30.454 40.958 30.979 41.033 C 31.038 41.033 31.269 41.033 31.396 41.033 C 31.454 41.144 31.439 41.298 31.396 41.265 C 31.087 41.265 30.779 41.265 30.47 41.265 C 29.964 40.678 29.919 41.331 29.915 41.681 C 29.511 41.88 29.156 42.115 28.804 41.635 C 28.564 41.852 28.253 42.306 28.249 42.745 C 28.547 43.117 27.722 43.237 27.74 43.717 C 27.708 43.916 27.738 44.706 27.509 44.642 C 27.221 44.223 26.898 43.929 26.444 44.087 Z M 44.371 14.524 C 44.39 15.281 45.58 14.934 45.463 15.632 C 45.366 15.652 45.444 16.026 45.417 16.187 C 45.417 16.187 45.61 16.3 45.649 16.373 C 46.664 16.343 46.062 15.439 45.926 15.077 C 46.378 14.476 44.659 14.062 44.677 13.967 C 44.66 14.062 44.408 14.374 44.371 14.524 Z M 24.454 37.378 C 24.272 37.162 24.173 37.519 24.269 37.748 C 24.081 38.087 23.012 38.295 23.575 38.766 C 23.806 39.013 24.655 37.682 24.454 37.378 Z M 20.752 28.402 C 20.704 28.309 21.182 28.213 21.262 28.31 C 21.702 27.472 19.768 27.943 20.752 28.402 Z M 24.038 27.153 C 24.326 27.632 24.716 27.052 24.686 26.69 C 24.753 25.919 23.732 26.863 24.038 27.153 Z M 30.285 21.462 C 31.498 20.514 30.418 18.027 29.313 18.547 C 28.322 18.861 29.364 19.683 28.758 20.12 C 28.283 21.136 30.305 21.417 30.285 21.462 Z M 40.512 19.935 C 40.532 19.074 39.656 20.467 40.281 20.398 C 40.427 20.325 40.553 20.125 40.512 19.935 Z M 37.597 19.519 C 37.573 19.948 35.979 19.842 36.903 20.398 C 37.125 20.37 37.558 20.448 37.643 20.352 C 38.278 20.311 38.371 19.118 37.597 19.519 Z M 32.136 18.501 C 31.548 18.824 32.122 19.561 32.319 19.839 C 32.84 19.84 32.527 18.628 32.136 18.501 Z M 34.913 17.946 C 34.879 17.873 34.577 17.873 34.543 17.946 C 33.954 18.135 33.106 18.267 33.386 19.195 C 33.852 19.865 34.657 18.627 35.049 19.468 C 35.061 19.459 35.265 19.515 35.237 19.426 C 35.685 19.007 36.166 17.75 34.913 17.946 Z M 42.826 16.511 C 41.707 17.187 43.362 17.159 43.427 17.714 C 43.528 17.704 43.789 17.748 43.751 17.668 C 44.365 17.056 43.697 15.975 42.826 16.511 Z M 40.928 16.049 C 40.435 15.264 39.266 16.552 40.373 16.696 C 40.373 16.696 40.743 16.743 40.928 16.743 C 41.038 16.959 41.489 17.234 41.669 17.113 C 42.594 16.586 41.668 15.802 40.928 16.049 Z M 46.389 17.159 C 46.504 17.214 46.811 17.211 46.898 17.113 C 48.233 16.409 45.499 16.138 46.389 17.159 Z M 38.106 16.511 C 38.172 16.514 38.263 16.22 38.106 16.187 C 37.516 16.196 37.162 15.962 36.949 15.447 C 36.952 15.371 36.572 15.28 36.532 15.447 C 36.316 15.447 36.1 15.447 35.885 15.447 C 35.76 15.351 35.59 15.307 35.653 15.586 C 35.55 16.195 37.002 17.242 37.226 16.974 C 37.398 17.106 38.075 16.812 38.106 16.511 Z M 43.936 12.301 C 43.84 12.342 42.392 12.632 42.456 12.486 C 42.287 11.988 44.353 11.785 43.936 12.301 Z M 58.467 44.226 C 57.54 43.741 57.283 42.147 57.634 42.005 C 57.776 42.112 58.257 41.87 58.328 41.635 C 58.458 41.701 58.458 41.316 58.328 41.311 C 57.492 41.141 58.029 40.184 57.958 39.368 C 57.69 38.861 57.553 37.979 57.634 37.517 C 57.931 36.45 56.098 37.135 56.523 36.36 C 56.952 35.49 55.401 35.801 55.644 34.787 C 55.644 34.669 55.644 34.374 55.644 34.186 C 56.233 34.034 56.551 33.612 56.662 32.983 C 56.725 32.429 56.712 31.907 56.523 31.363 C 56.067 30.811 56.818 30.452 56.107 30.022 C 56.185 29.739 56.797 29.638 56.616 28.957 C 56.724 28.947 56.832 28.761 56.94 28.68 C 57.745 28.556 57.318 27.606 56.801 27.523 C 56.395 27.274 55.521 27.225 55.598 26.551 C 55.802 25.604 56.282 27.059 56.94 26.598 C 57.662 26.854 57.966 26.083 58.513 26.089 C 58.513 26.089 58.738 26.235 59.022 26.12 C 59.472 26.014 59.562 25.611 60.04 25.534 C 60.353 25.291 60.509 24.891 60.596 24.423 C 60.819 23.83 60.256 23.704 59.948 23.498 C 60.05 23.114 60.983 23.549 60.919 22.85 C 61.08 22.85 61.007 22.518 61.012 22.387 C 61.012 22.26 61.058 22.174 61.151 22.156 C 62.021 22.304 62.163 23.18 62.493 23.868 C 62.16 24.538 62.373 25.51 62.909 24.562 C 63.146 24.419 63.196 23.674 63.141 23.544 C 63.647 23.477 63.783 24.259 63.789 24.886 C 64.48 25.191 64.108 25.789 63.789 26.181 C 63.85 26.853 63.989 27.174 63.742 27.893 C 64.436 28.398 63.54 28.883 63.187 28.263 C 62.722 28.098 62.523 27.534 61.891 27.477 C 61.449 27.36 60.484 27.113 60.179 27.523 C 59.368 27.641 59.711 28.26 59.994 28.726 C 60.647 28.702 60.932 29.671 60.087 29.559 C 59.957 29.521 59.786 29.506 59.67 29.559 C 58.889 30.001 60.077 30.079 60.133 30.438 C 59.852 30.804 60.086 31.368 60.133 31.733 C 60.648 32.004 59.976 32.799 60.642 32.89 C 61.229 32.86 61.414 32.428 61.752 32.15 C 61.811 32.054 61.859 31.948 61.845 31.78 C 61.904 31.476 62.118 31.343 61.937 31.039 C 61.937 30.98 61.937 30.75 61.937 30.623 C 62.97 30.068 61.455 29.942 61.706 29.374 C 61.794 29.333 62.056 29.301 62.215 29.374 C 62.544 29.697 62.928 29.123 63.418 29.235 C 63.915 28.941 64.147 29.594 64.344 29.883 C 64.612 30.2 64.756 30.643 64.899 31.086 C 65.028 31.513 65.38 31.945 65.038 32.335 C 64.94 32.355 65.019 32.729 64.992 32.89 C 64.958 33.663 65.631 33.186 65.917 33.122 C 65.989 33.199 65.96 33.554 65.963 33.769 C 65.835 33.833 65.447 34.337 65.639 34.556 C 65.703 34.552 65.816 35.039 65.732 35.204 C 65.104 35.07 64.016 35.71 63.372 35.481 C 62.359 35.62 62.649 36.975 63.557 36.823 C 63.734 36.142 65.414 36.265 65.501 37.054 C 66.056 37.82 65.065 38.916 65.454 39.46 C 65.454 39.486 65.454 39.688 65.454 39.784 C 64.944 40.186 63.599 39.434 64.251 40.663 C 64.251 40.817 64.251 40.972 64.251 41.126 C 64.18 41.941 63.261 41.943 63.372 40.941 C 63.379 40.87 62.927 40.87 62.863 40.941 C 63.103 41.43 62.915 42.342 62.354 42.19 C 61.893 41.796 61.521 43.077 61.105 42.283 C 61.097 42.141 61.001 41.885 60.827 42.051 C 59.599 42.268 60.938 42.612 60.642 42.977 C 60.254 43.298 60.155 43.909 59.531 43.994 C 59.5 44.022 58.908 44.058 58.726 44.146 C 58.637 44.215 58.548 44.24 58.467 44.226 Z M 59.392 43.115 C 58.858 42.78 60.131 42.119 59.207 42.005 C 59.119 41.95 58.916 41.848 58.883 42.005 C 58.801 42.079 58.663 42.258 58.791 42.375 C 58.806 42.385 58.776 42.526 58.698 42.514 C 58.606 42.421 58.513 42.329 58.421 42.236 C 58.37 42.105 58.242 42.175 58.143 42.236 C 58.045 42.226 58.123 42.566 58.097 42.745 C 58.112 43.332 58.762 43.329 59.161 43.578 C 59.521 43.708 59.619 43.271 59.392 43.115 Z M 59.531 40.571 C 59.881 40.693 60.099 40.125 59.994 39.923 C 59.796 39.517 59.425 39.32 58.93 39.229 C 58.677 38.386 58.483 39.225 58.698 39.645 C 59.215 39.906 59.013 40.389 59.531 40.571 Z M 60.549 37.193 C 60.871 36.705 61.947 36.604 61.105 35.851 C 60.99 35.834 60.916 35.815 60.781 35.851 C 59.756 35.394 59.342 36.61 59.254 37.054 C 58.67 38.001 59.704 38.261 59.901 39.044 C 61.307 39.169 60.242 37.913 60.549 37.193 Z M 61.058 34.093 C 61.04 33.545 61.856 33.318 61.891 33.353 C 61.926 33.346 62.102 33.415 62.169 33.26 C 62.253 32.984 61.506 32.8 61.29 33.122 C 61.04 33.149 60.684 33.071 60.503 33.168 C 60.083 33.185 59.453 33.074 59.392 33.399 C 59.33 33.569 59.392 33.723 59.392 33.723 C 59.178 34.219 59.696 34.609 59.994 34.88 L 60.133 34.833 C 60.333 34.478 60.824 34.414 61.058 34.093 Z M 62.77 26.228 C 62.87 26.172 62.528 25.652 62.308 25.626 C 62.26 25.478 61.943 25.554 62.03 25.811 L 62.539 26.274 C 62.624 26.278 62.82 26.288 62.77 26.228 Z M 43.15 35.712 C 43.192 35.712 44.538 35.759 44.538 35.759 C 45.302 35.562 45.058 36.317 44.538 36.268 C 44.543 36.268 44.373 36.268 44.307 36.268 C 43.682 36.326 43.171 36.244 42.594 36.407 C 42.512 36.473 42.448 36.499 42.363 36.453 C 41.828 36.048 42.655 35.707 43.15 35.712 Z M 43.15 39.877 C 43.08 39.712 42.787 39.907 42.687 39.738 C 42.635 39.702 42.79 39.285 42.594 39.321 C 42.211 39.083 42.546 38.377 42.918 38.35 C 43.142 38.018 43.681 38.002 44.029 37.795 C 44.053 37.734 44.261 37.734 44.353 37.795 C 44.653 37.814 44.223 38.371 44.538 38.211 C 44.597 38.211 44.828 38.211 44.954 38.211 C 45.65 38.329 45.737 38.746 45.649 39.183 C 45.682 39.179 45.747 39.453 45.649 39.506 C 45.68 40.248 45.18 40.404 44.672 40.605 C 44.376 40.701 43.236 40.386 43.15 39.877 Z M 45.325 39.09 C 45.372 38.029 44.388 38.829 44.862 39.46 C 44.703 40.245 43.827 39.705 43.751 39.368 C 43.108 39.723 43.829 40.342 44.26 40.432 C 45.07 40.506 45.581 39.865 45.325 39.09 Z M 47.083 39.136 L 47.176 39.09 C 47.483 39.158 47.763 39.349 47.87 39.553 L 47.777 39.691 C 47.551 39.512 47.133 39.428 47.083 39.136"/>
  <use xlink:href="#ornament" transform="translate( 70.20)"/>
  <use xlink:href="#ornament" transform="translate( 86.67)"/>
  <use xlink:href="#ornament" transform="translate(103.14)"/>
  <use xlink:href="#ornament" transform="translate(119.61)"/>
  <use xlink:href="#ornament" transform="translate(136.08)"/>
  <use xlink:href="#ornament" transform="translate(152.55)"/>
  <use xlink:href="#ornament" transform="translate(169.02)"/>
  <use xlink:href="#ornament" transform="translate(185.49)"/>
  <text x="102" y="80" style="fill: #cc0000; font-family: 'Ruslan Display'; font-size: 11px"></text>
</svg>